<svg width="541" height="145" viewBox="0 0 541 145" fill="none" xmlns="http://www.w3.org/2000/svg">
<g filter="url(#filter0_d_32_114)">
<path d="M53.7758 29.9968C35.1724 29.9968 21.9294 46.5054 21.9294 62.6984C21.9294 68.4291 23.8738 75.6844 28.656 78.4183V78.208C28.656 76.5255 29.8122 75.2112 31.4938 75.1587C33.1229 75.1587 34.4892 76.473 34.4892 78.1027C34.4367 79.5749 33.3332 81.047 31.4412 81.047C24.9774 81.047 20.0901 72.2145 20.0901 62.8561C20.0901 39.3026 37.5898 22.2683 58.2427 22.2683C82.1011 22.2683 93.5574 44.4023 93.5574 65.6952C93.5574 85.5684 82.469 104.39 63.4979 104.39C49.1512 104.39 36.0659 91.7197 36.0659 70.2166C36.0659 54.0761 44.6843 38.7242 61.0279 35.9378L61.2907 37.4099C48.7309 40.0912 42.7398 55.6008 42.7398 68.797C42.7398 84.9376 51.3584 97.0824 60.0294 97.0824C71.328 97.0824 78.2123 81.9933 78.2123 66.0632C78.2123 48.5032 71.1704 29.9968 53.7758 29.9968ZM116.89 51.4474V92.4557C116.89 96.8195 119.203 97.7657 121.568 97.7657C123.565 97.7657 127.138 96.5566 128.872 93.4547V66.3786C128.872 62.3829 127.663 59.0182 125.982 58.0718V56.9678C132.288 56.0739 136.019 55.1276 141.59 51.4474H142.693V96.9771C142.693 99.7636 143.429 100.342 144.322 100.342C144.638 100.342 145.005 100.237 145.374 100.184L145.794 101.236C143.429 103.128 139.908 104.39 136.702 104.39C133.024 104.39 129.713 102.708 129.03 98.2915C125.877 102.971 121.883 104.443 117.521 104.443C112.108 104.443 103.069 100.184 103.069 89.9322V66.3786C103.069 62.3829 101.861 59.0182 100.179 58.0718V56.9678C106.485 56.0739 110.216 55.1276 115.787 51.4474H116.89ZM122.986 29.8917L130.133 37.0945L122.986 44.2447L115.839 37.0945L122.986 29.8917ZM169.442 31.4689V52.3937H188.466L185.943 60.8582L176.116 59.1233H169.442V95.6628C169.442 97.6081 169.547 99.2379 171.44 99.2379C175.118 99.2379 179.689 88.1972 179.689 82.8345C179.689 82.4665 179.689 82.1511 179.638 81.8356L180.583 81.5727L189.516 92.8764C187.835 99.1853 181.109 104.39 174.855 104.39C171.282 104.39 155.673 100.342 155.673 85.7262V59.1233H151.154L148.422 53.2875V52.3937H152.731C159.352 52.3937 166.972 36.5687 168.339 31.4689H169.442ZM223.483 76.5177C220.441 76.5177 218.751 79.0201 218.412 84.0251C218.277 85.3777 218.21 86.7304 218.21 88.0832C218.21 89.4359 218.311 90.9238 218.514 92.547C218.784 94.1026 219.224 95.523 219.833 96.808C221.117 99.8516 222.84 101.373 225.004 101.373C228.181 101.373 229.972 98.9046 230.378 93.9673C230.446 92.6823 230.48 91.3634 230.48 90.0107C230.48 88.658 230.344 87.1701 230.074 85.5468C229.803 83.9236 229.364 82.4694 228.755 81.1844C227.471 78.0732 225.713 76.5177 223.483 76.5177ZM224.294 73.7784C226.593 73.7784 228.688 74.1504 230.581 74.8944C232.541 75.6383 234.231 76.6866 235.652 78.0394C238.558 80.88 240.012 84.4309 240.012 88.6919C240.012 92.8851 238.491 96.5374 235.448 99.6487C232.541 102.692 228.857 104.214 224.396 104.214C219.731 104.214 215.945 102.76 213.038 99.8516C210.13 96.9433 208.677 93.3925 208.677 89.1991C208.677 85.0734 210.165 81.455 213.14 78.3438C216.113 75.3002 219.833 73.7784 224.294 73.7784ZM250.997 103.504C248.224 103.504 245.149 103.673 241.768 104.011C241.633 103.808 241.566 103.402 241.566 102.794C241.566 102.185 241.633 101.745 241.768 101.475C243.189 101.475 244.236 101.34 244.912 101.069C245.588 100.731 245.994 100.46 246.129 100.257C246.466 99.4457 246.636 97.3491 246.636 93.9673V78.2423H241.87C241.668 78.1071 241.566 77.8027 241.566 77.3292C242.107 76.5177 242.816 75.7736 243.695 75.0972H246.636V74.0828C246.636 69.8218 248.326 65.8313 251.707 62.1114C253.126 60.4881 254.613 59.237 256.168 58.3576C257.791 57.4108 259.211 56.9373 260.428 56.9373C261.712 56.9373 263.166 57.1741 264.789 57.6476C265.328 57.9856 265.904 58.3915 266.512 58.865C267.12 59.2707 267.425 59.9809 267.425 60.9955C267.425 61.9423 267.12 62.923 266.512 63.9375C265.971 64.8843 265.16 65.3578 264.078 65.3578C262.996 65.3578 262.118 65.0873 261.442 64.5463C260.834 63.9375 260.156 63.3288 259.413 62.7201C258.67 62.1114 257.824 61.807 256.879 61.807C256.338 61.807 255.864 62.3481 255.458 63.4303C255.053 64.4448 254.85 65.7298 254.85 67.2855C254.85 69.2468 254.952 71.8508 255.154 75.0972H262.963C263.233 75.0972 263.368 75.4355 263.368 76.1118C263.368 76.7205 262.861 77.4307 261.847 78.2423H255.358V93.9673C255.358 97.3491 255.458 99.3105 255.662 99.8516C255.864 100.325 256.134 100.663 256.473 100.866C256.879 101.001 257.318 101.137 257.791 101.272C258.602 101.407 259.38 101.475 260.123 101.475C260.326 101.745 260.393 102.185 260.326 102.794C260.326 103.402 260.258 103.808 260.123 104.011C256.946 103.673 253.904 103.504 250.997 103.504ZM348.883 27.4732L346.623 30.8381C344.469 34.0977 340.896 38.7242 340.896 42.5622C340.896 43.9818 341.368 45.2961 342.576 46.3476L342.104 47.0837C336.954 43.5612 335.01 39.2501 335.01 34.9388V34.0977H318.141V59.8593L323.868 60.8582C325.392 61.1211 327.337 61.384 329.229 61.384C332.592 61.384 335.746 60.4903 335.746 56.9151L336.796 56.8625C336.796 65.2746 330.963 68.4291 324.92 68.4291C322.713 68.4291 319.717 67.7981 318.141 67.5353V95.8206C318.141 108.386 307.209 111.383 298.013 113.749L297.382 112.539C302.217 109.753 303.006 105.179 303.006 100.605V65.1168C302.323 65.0642 301.587 65.0117 300.85 65.0117C297.488 65.0117 294.387 65.9055 294.387 69.4806L293.388 69.5331C293.388 62.2253 297.856 58.8604 303.006 58.1243V33.3616C288.974 37.1995 281.143 50.9216 281.143 63.6447C281.143 69.4806 283.194 77.4719 288.396 80.3636C288.396 78.1554 290.078 77.2091 291.549 77.2091C293.021 77.2091 294.387 78.5234 294.387 80.1007C294.387 81.6779 293.073 83.0975 291.497 83.0975C284.77 83.0975 279.305 73.5288 279.305 63.6974C279.305 42.2994 293.493 24.3188 315.67 24.3188H334.8C336.901 24.3188 338.845 23.2146 340.002 21.6375L348.883 27.4732ZM359.498 50.7114C376.735 50.7114 385.407 62.6457 385.407 74.0545C385.407 88.0394 379.521 104.39 362.915 104.39C351.248 104.39 343.786 90.9836 343.786 81.2573C343.786 66.6416 353.718 58.8078 359.498 50.7114ZM359.184 60.1222C356.345 60.1222 354.296 62.3829 354.296 66.9044C354.296 75.106 359.814 89.9322 366.33 95.0319C368.012 96.3463 369.483 96.9246 370.744 96.9246C374.213 96.9246 375.316 92.9815 375.316 88.7229C375.316 75.7895 367.066 60.1222 359.184 60.1222ZM364.597 29.8917L371.743 37.0945L364.597 44.2447L357.449 37.0945L364.597 29.8917ZM405.166 50.7114C416.99 50.7114 426.134 54.4967 428.446 63.1189L420.248 75.9998L419.093 75.6319L419.144 74.738C419.144 68.797 411.21 59.649 405.797 59.649C402.643 59.649 401.068 63.1716 401.068 69.428C401.068 80.1533 406.374 95.7679 416.517 95.7679C420.354 95.7679 425.398 91.9826 428.552 85.6211L430.128 86.3044C428.132 93.5599 423.244 104.39 411.157 104.39C396.075 104.39 390.242 93.8753 390.242 82.9397C390.242 69.9538 398.912 59.281 405.166 50.7114ZM410.158 108.333L417.306 115.536L410.158 122.686C405.429 117.902 407.793 120.32 403.012 115.536L410.158 108.333ZM449.888 51.4474V92.4557C449.888 96.8195 452.2 97.7657 454.565 97.7657C456.562 97.7657 460.136 96.5566 461.869 93.4547V66.3786C461.869 62.3829 460.661 59.0182 458.979 58.0718V56.9678C465.286 56.0739 469.017 55.1276 474.588 51.4474H475.691V96.9771C475.691 99.7636 476.426 100.342 477.32 100.342C477.636 100.342 478.003 100.237 478.37 100.184L478.791 101.236C476.426 103.128 472.906 104.39 469.7 104.39C466.021 104.39 462.71 102.708 462.027 98.2915C458.874 102.971 454.881 104.443 450.518 104.443C445.105 104.443 436.066 100.184 436.066 89.9322V66.3786C436.066 62.3829 434.858 59.0182 433.176 58.0718V56.9678C439.483 56.0739 443.214 55.1276 448.785 51.4474H449.888ZM455.984 29.8917L463.13 37.0945L455.984 44.2447L448.836 37.0945L455.984 29.8917ZM483.783 87.7765C488.199 92.8238 496.291 94.6114 503.281 94.6114C510.113 94.6114 515.893 92.8764 515.893 90.7733C515.893 89.7744 514.579 88.6704 511.584 87.6715C503.07 84.8323 485.151 83.0448 485.151 70.5846C485.151 62.8561 492.139 54.9172 496.344 50.7114C508.22 50.7114 515.893 53.8658 520.202 61.2789L513.423 72.9505L512.267 72.5824C512.32 72.3721 512.32 72.1092 512.32 71.8991C512.32 66.2735 502.491 59.8068 496.711 59.8068C493.716 59.8068 492.244 61.6468 492.244 63.9602C492.244 64.6963 492.402 65.4849 492.664 66.2735C496.711 74.8431 520.832 72.0041 520.832 89.7744C520.832 98.0286 511.741 104.39 502.335 104.39C490.248 104.39 484.152 95.6103 482.575 88.6178L483.783 87.7765ZM495.136 108.333C499.759 113.013 497.447 110.647 502.124 115.326L509.061 108.333C513.844 113.118 511.479 110.752 516.209 115.536L509.061 122.686L502.124 115.694C497.447 120.373 499.759 118.007 495.136 122.686L487.988 115.536L495.136 108.333Z" fill="url(#paint0_linear_32_114)"/>
<mask id="mask0_32_114" style="mask-type:luminance" maskUnits="userSpaceOnUse" x="15" y="14" width="511" height="116">
<path d="M525.912 14.6968H15.0472V129.548H525.912V14.6968Z" fill="white"/>
<path d="M53.7758 29.9968C35.1724 29.9968 21.9294 46.5054 21.9294 62.6984C21.9294 68.4291 23.8738 75.6844 28.656 78.4183V78.208C28.656 76.5255 29.8122 75.2112 31.4938 75.1587C33.1229 75.1587 34.4892 76.473 34.4892 78.1027C34.4367 79.5749 33.3332 81.047 31.4412 81.047C24.9774 81.047 20.0901 72.2145 20.0901 62.8561C20.0901 39.3026 37.5898 22.2683 58.2427 22.2683C82.1011 22.2683 93.5574 44.4023 93.5574 65.6952C93.5574 85.5684 82.469 104.39 63.4979 104.39C49.1512 104.39 36.0659 91.7197 36.0659 70.2166C36.0659 54.0761 44.6843 38.7242 61.0279 35.9378L61.2907 37.4099C48.7309 40.0912 42.7398 55.6008 42.7398 68.797C42.7398 84.9376 51.3584 97.0824 60.0294 97.0824C71.328 97.0824 78.2123 81.9933 78.2123 66.0632C78.2123 48.5032 71.1704 29.9968 53.7758 29.9968ZM116.89 51.4474V92.4557C116.89 96.8195 119.203 97.7657 121.568 97.7657C123.565 97.7657 127.138 96.5566 128.872 93.4547V66.3786C128.872 62.3829 127.663 59.0182 125.982 58.0718V56.9678C132.288 56.0739 136.019 55.1276 141.59 51.4474H142.693V96.9771C142.693 99.7636 143.429 100.342 144.322 100.342C144.638 100.342 145.005 100.237 145.374 100.184L145.794 101.236C143.429 103.128 139.908 104.39 136.702 104.39C133.024 104.39 129.713 102.708 129.03 98.2915C125.877 102.971 121.883 104.443 117.521 104.443C112.108 104.443 103.069 100.184 103.069 89.9322V66.3786C103.069 62.3829 101.861 59.0182 100.179 58.0718V56.9678C106.485 56.0739 110.216 55.1276 115.787 51.4474H116.89ZM122.986 29.8917L130.133 37.0945L122.986 44.2447L115.839 37.0945L122.986 29.8917ZM169.442 31.4689V52.3937H188.466L185.943 60.8582L176.116 59.1233H169.442V95.6628C169.442 97.6081 169.547 99.2379 171.44 99.2379C175.118 99.2379 179.689 88.1972 179.689 82.8345C179.689 82.4665 179.689 82.1511 179.638 81.8356L180.583 81.5727L189.516 92.8764C187.835 99.1853 181.109 104.39 174.855 104.39C171.282 104.39 155.673 100.342 155.673 85.7262V59.1233H151.154L148.422 53.2875V52.3937H152.731C159.352 52.3937 166.972 36.5687 168.339 31.4689H169.442ZM223.483 76.5177C220.441 76.5177 218.751 79.0201 218.412 84.0251C218.277 85.3777 218.21 86.7304 218.21 88.0832C218.21 89.4359 218.311 90.9238 218.514 92.547C218.784 94.1026 219.224 95.523 219.833 96.808C221.117 99.8516 222.84 101.373 225.004 101.373C228.181 101.373 229.972 98.9046 230.378 93.9673C230.446 92.6823 230.48 91.3634 230.48 90.0107C230.48 88.658 230.344 87.1701 230.074 85.5468C229.803 83.9236 229.364 82.4694 228.755 81.1844C227.471 78.0732 225.713 76.5177 223.483 76.5177ZM224.294 73.7784C226.593 73.7784 228.688 74.1504 230.581 74.8944C232.541 75.6383 234.231 76.6866 235.652 78.0394C238.558 80.88 240.012 84.4309 240.012 88.6919C240.012 92.8851 238.491 96.5374 235.448 99.6487C232.541 102.692 228.857 104.214 224.396 104.214C219.731 104.214 215.945 102.76 213.038 99.8516C210.13 96.9433 208.677 93.3925 208.677 89.1991C208.677 85.0734 210.165 81.455 213.14 78.3438C216.113 75.3002 219.833 73.7784 224.294 73.7784ZM250.997 103.504C248.224 103.504 245.149 103.673 241.768 104.011C241.633 103.808 241.566 103.402 241.566 102.794C241.566 102.185 241.633 101.745 241.768 101.475C243.189 101.475 244.236 101.34 244.912 101.069C245.588 100.731 245.994 100.46 246.129 100.257C246.466 99.4457 246.636 97.3491 246.636 93.9673V78.2423H241.87C241.668 78.1071 241.566 77.8027 241.566 77.3292C242.107 76.5177 242.816 75.7736 243.695 75.0972H246.636V74.0828C246.636 69.8218 248.326 65.8313 251.707 62.1114C253.126 60.4881 254.613 59.237 256.168 58.3576C257.791 57.4108 259.211 56.9373 260.428 56.9373C261.712 56.9373 263.166 57.1741 264.789 57.6476C265.328 57.9856 265.904 58.3915 266.512 58.865C267.12 59.2707 267.425 59.9809 267.425 60.9955C267.425 61.9423 267.12 62.923 266.512 63.9375C265.971 64.8843 265.16 65.3578 264.078 65.3578C262.996 65.3578 262.118 65.0873 261.442 64.5463C260.834 63.9375 260.156 63.3288 259.413 62.7201C258.67 62.1114 257.824 61.807 256.879 61.807C256.338 61.807 255.864 62.3481 255.458 63.4303C255.053 64.4448 254.85 65.7298 254.85 67.2855C254.85 69.2468 254.952 71.8508 255.154 75.0972H262.963C263.233 75.0972 263.368 75.4355 263.368 76.1118C263.368 76.7205 262.861 77.4307 261.847 78.2423H255.358V93.9673C255.358 97.3491 255.458 99.3105 255.662 99.8516C255.864 100.325 256.134 100.663 256.473 100.866C256.879 101.001 257.318 101.137 257.791 101.272C258.602 101.407 259.38 101.475 260.123 101.475C260.326 101.745 260.393 102.185 260.326 102.794C260.326 103.402 260.258 103.808 260.123 104.011C256.946 103.673 253.904 103.504 250.997 103.504ZM348.883 27.4732L346.623 30.8381C344.469 34.0977 340.896 38.7242 340.896 42.5622C340.896 43.9818 341.368 45.2961 342.576 46.3476L342.104 47.0837C336.954 43.5612 335.01 39.2501 335.01 34.9388V34.0977H318.141V59.8593L323.868 60.8582C325.392 61.1211 327.337 61.384 329.229 61.384C332.592 61.384 335.746 60.4903 335.746 56.9151L336.796 56.8625C336.796 65.2746 330.963 68.4291 324.92 68.4291C322.713 68.4291 319.717 67.7981 318.141 67.5353V95.8206C318.141 108.386 307.209 111.383 298.013 113.749L297.382 112.539C302.217 109.753 303.006 105.179 303.006 100.605V65.1168C302.323 65.0642 301.587 65.0117 300.85 65.0117C297.488 65.0117 294.387 65.9055 294.387 69.4806L293.388 69.5331C293.388 62.2253 297.856 58.8604 303.006 58.1243V33.3616C288.974 37.1995 281.143 50.9216 281.143 63.6447C281.143 69.4806 283.194 77.4719 288.396 80.3636C288.396 78.1554 290.078 77.2091 291.549 77.2091C293.021 77.2091 294.387 78.5234 294.387 80.1007C294.387 81.6779 293.073 83.0975 291.497 83.0975C284.77 83.0975 279.305 73.5288 279.305 63.6974C279.305 42.2994 293.493 24.3188 315.67 24.3188H334.8C336.901 24.3188 338.845 23.2146 340.002 21.6375L348.883 27.4732ZM359.498 50.7114C376.735 50.7114 385.407 62.6457 385.407 74.0545C385.407 88.0394 379.521 104.39 362.915 104.39C351.248 104.39 343.786 90.9836 343.786 81.2573C343.786 66.6416 353.718 58.8078 359.498 50.7114ZM359.184 60.1222C356.345 60.1222 354.296 62.3829 354.296 66.9044C354.296 75.106 359.814 89.9322 366.33 95.0319C368.012 96.3463 369.483 96.9246 370.744 96.9246C374.213 96.9246 375.316 92.9815 375.316 88.7229C375.316 75.7895 367.066 60.1222 359.184 60.1222ZM364.597 29.8917L371.743 37.0945L364.597 44.2447L357.449 37.0945L364.597 29.8917ZM405.166 50.7114C416.99 50.7114 426.134 54.4967 428.446 63.1189L420.248 75.9998L419.093 75.6319L419.144 74.738C419.144 68.797 411.21 59.649 405.797 59.649C402.643 59.649 401.068 63.1716 401.068 69.428C401.068 80.1533 406.374 95.7679 416.517 95.7679C420.354 95.7679 425.398 91.9826 428.552 85.6211L430.128 86.3044C428.132 93.5599 423.244 104.39 411.157 104.39C396.075 104.39 390.242 93.8753 390.242 82.9397C390.242 69.9538 398.912 59.281 405.166 50.7114ZM410.158 108.333L417.306 115.536L410.158 122.686C405.429 117.902 407.793 120.32 403.012 115.536L410.158 108.333ZM449.888 51.4474V92.4557C449.888 96.8195 452.2 97.7657 454.565 97.7657C456.562 97.7657 460.136 96.5566 461.869 93.4547V66.3786C461.869 62.3829 460.661 59.0182 458.979 58.0718V56.9678C465.286 56.0739 469.017 55.1276 474.588 51.4474H475.691V96.9771C475.691 99.7636 476.426 100.342 477.32 100.342C477.636 100.342 478.003 100.237 478.37 100.184L478.791 101.236C476.426 103.128 472.906 104.39 469.7 104.39C466.021 104.39 462.71 102.708 462.027 98.2915C458.874 102.971 454.881 104.443 450.518 104.443C445.105 104.443 436.066 100.184 436.066 89.9322V66.3786C436.066 62.3829 434.858 59.0182 433.176 58.0718V56.9678C439.483 56.0739 443.214 55.1276 448.785 51.4474H449.888ZM455.984 29.8917L463.13 37.0945L455.984 44.2447L448.836 37.0945L455.984 29.8917ZM483.783 87.7765C488.199 92.8238 496.291 94.6114 503.281 94.6114C510.113 94.6114 515.893 92.8764 515.893 90.7733C515.893 89.7744 514.579 88.6704 511.584 87.6715C503.07 84.8323 485.151 83.0448 485.151 70.5846C485.151 62.8561 492.139 54.9172 496.344 50.7114C508.22 50.7114 515.893 53.8658 520.202 61.2789L513.423 72.9505L512.267 72.5824C512.32 72.3721 512.32 72.1092 512.32 71.8991C512.32 66.2735 502.491 59.8068 496.711 59.8068C493.716 59.8068 492.244 61.6468 492.244 63.9602C492.244 64.6963 492.402 65.4849 492.664 66.2735C496.711 74.8431 520.832 72.0041 520.832 89.7744C520.832 98.0286 511.741 104.39 502.335 104.39C490.248 104.39 484.152 95.6103 482.575 88.6178L483.783 87.7765ZM495.136 108.333C499.759 113.013 497.447 110.647 502.124 115.326L509.061 108.333C513.844 113.118 511.479 110.752 516.209 115.536L509.061 122.686L502.124 115.694C497.447 120.373 499.759 118.007 495.136 122.686L487.988 115.536L495.136 108.333Z" fill="black"/>
</mask>
<g mask="url(#mask0_32_114)">
<path d="M28.656 78.4183L26.5201 82.1577L32.9611 85.8399V78.4183H28.656ZM31.4938 75.1587V70.8517H31.4266L31.3593 70.8537L31.4938 75.1587ZM34.4892 78.1027L38.7915 78.2565L38.7942 78.1797V78.1027H34.4892ZM61.0279 35.9378L65.2659 35.1807L64.5151 30.9743L60.3047 31.6921L61.0279 35.9378ZM61.2907 37.4099L62.1891 41.622L66.2605 40.7528L65.5287 36.6528L61.2907 37.4099ZM53.7758 29.9968V25.6898C32.4499 25.6898 17.6244 44.4872 17.6244 62.6984H21.9294H26.2344C26.2344 48.5236 37.8949 34.3037 53.7758 34.3037V29.9968ZM21.9294 62.6984H17.6244C17.6244 65.9993 18.177 69.7724 19.4718 73.2035C20.7474 76.5831 22.9312 80.106 26.5201 82.1577L28.656 78.4183L30.7919 74.6787C29.5987 73.9967 28.4191 72.525 27.5269 70.1608C26.654 67.8479 26.2344 65.1281 26.2344 62.6984H21.9294ZM28.656 78.4183H32.9611V78.208H28.656H24.351V78.4183H28.656ZM28.656 78.208H32.9611C32.9611 78.3609 32.9008 78.6731 32.6194 78.9806C32.3199 79.3078 31.9257 79.4541 31.6282 79.4634L31.4938 75.1587L31.3593 70.8537C27.1302 70.986 24.351 74.4295 24.351 78.208H28.656ZM31.4938 75.1587V79.4656C30.8448 79.4656 30.1842 78.9501 30.1842 78.1027H34.4892H38.7942C38.7942 73.9959 35.4009 70.8517 31.4938 70.8517V75.1587ZM34.4892 78.1027L30.1869 77.9491C30.1961 77.6955 30.2878 77.4223 30.519 77.1763C30.6435 77.0438 30.8045 76.9257 30.9924 76.844C31.1835 76.7608 31.3461 76.74 31.4412 76.74V81.047V85.3539C36.028 85.3539 38.6704 81.6495 38.7915 78.2565L34.4892 78.1027ZM31.4412 81.047V76.74C30.3427 76.74 28.6686 75.9665 27.0313 73.2418C25.4502 70.6106 24.3952 66.8477 24.3952 62.8561H20.0901H15.7851C15.7851 68.2228 17.1736 73.5555 19.652 77.68C22.0745 81.7112 26.0759 85.3539 31.4412 85.3539V81.047ZM20.0901 62.8561H24.3952C24.3952 41.5406 40.1056 26.5752 58.2427 26.5752V22.2683V17.9613C35.074 17.9613 15.7851 37.0646 15.7851 62.8561H20.0901ZM58.2427 22.2683V26.5752C68.6402 26.5752 76.2191 31.3168 81.3428 38.4989C86.5625 45.8156 89.2523 55.7446 89.2523 65.6952H93.5574H97.8624C97.8624 54.3529 94.8242 42.5686 88.3511 33.4949C81.7821 24.2869 71.7035 17.9613 58.2427 17.9613V22.2683ZM93.5574 65.6952H89.2523C89.2523 74.8922 86.6758 83.6498 82.1411 89.9884C77.6688 96.2398 71.3746 100.083 63.4979 100.083V104.39V108.697C74.5921 108.697 83.3279 103.13 89.1425 95.0018C94.8948 86.9614 97.8624 76.3714 97.8624 65.6952H93.5574ZM63.4979 104.39V100.083C52.0924 100.083 40.3709 89.947 40.3709 70.2166H36.0658H31.7608C31.7608 93.4924 46.2101 108.697 63.4979 108.697V104.39ZM36.0658 70.2166H40.3709C40.3709 55.331 48.2101 42.4922 61.7512 40.1835L61.0279 35.9378L60.3047 31.6921C41.1586 34.9563 31.7608 52.8212 31.7608 70.2166H36.0658ZM61.0279 35.9378L56.7899 36.6949L57.0526 38.167L61.2907 37.4099L65.5287 36.6528L65.2659 35.1807L61.0279 35.9378ZM61.2907 37.4099L60.3922 33.1978C52.4616 34.8909 46.9344 40.5835 43.4913 47.1628C40.0517 53.7353 38.4348 61.6177 38.4348 68.7971H42.7398H47.0449C47.0449 62.7801 48.4233 56.3095 51.1193 51.158C53.8117 46.0131 57.5599 42.6102 62.1891 41.622L61.2907 37.4099ZM42.7398 68.7971H38.4348C38.4348 77.6 40.7789 85.4963 44.5088 91.3168C48.1512 97.001 53.63 101.389 60.0294 101.389V97.0824V92.7755C57.7578 92.7755 54.5919 91.0913 51.7571 86.6679C49.0101 82.381 47.0449 76.1346 47.0449 68.7971H42.7398ZM60.0294 97.0824V101.389C67.8856 101.389 73.611 96.0952 77.1397 89.6044C80.6908 83.0728 82.5174 74.5736 82.5174 66.0632H78.2123H73.9073C73.9073 73.4828 72.2918 80.4934 69.576 85.4887C66.838 90.5249 63.4719 92.7755 60.0294 92.7755V97.0824ZM78.2123 66.0632H82.5174C82.5174 56.8067 80.6767 46.974 76.2458 39.2923C71.7157 31.4389 64.3299 25.6898 53.7758 25.6898V29.9968V34.3037C60.6162 34.3037 65.4488 37.808 68.7883 43.5976C72.227 49.5591 73.9073 57.7597 73.9073 66.0632H78.2123ZM116.89 51.4474H121.195V47.1405H116.89V51.4474ZM128.872 93.4547L132.629 95.5572L133.177 94.5773V93.4547H128.872ZM125.982 58.0718H121.677V60.5908L123.871 61.8256L125.982 58.0718ZM125.982 56.9678L125.378 52.7033L121.677 53.2279V56.9678H125.982ZM141.59 51.4474V47.1405H140.296L139.217 47.8535L141.59 51.4474ZM142.693 51.4474H146.998V47.1405H142.693V51.4474ZM145.374 100.184L149.37 98.5846L148.113 95.4419L144.764 95.9207L145.374 100.184ZM145.794 101.236L148.484 104.599L150.978 102.603L149.791 99.6363L145.794 101.236ZM129.03 98.2915L133.284 97.6328L131.603 86.7676L125.46 95.8841L129.03 98.2915ZM100.179 58.0718H95.8739V60.5908L98.0683 61.8256L100.179 58.0718ZM100.179 56.9678L99.5751 52.7033L95.8739 53.2279V56.9678H100.179ZM115.787 51.4474V47.1405H114.494L113.414 47.8535L115.787 51.4474ZM122.986 29.8917L126.042 26.8574L122.986 23.7783L119.931 26.8574L122.986 29.8917ZM130.133 37.0944L133.178 40.1399L136.211 37.1056L133.189 34.0602L130.133 37.0944ZM122.986 44.2447L119.942 47.2901L122.986 50.3355L126.031 47.2901L122.986 44.2447ZM115.839 37.0944L112.784 34.0602L109.762 37.1056L112.795 40.1399L115.839 37.0944ZM116.89 51.4474H112.585V92.4557H116.89H121.195V51.4474H116.89ZM116.89 92.4557H112.585C112.585 95.3619 113.369 98.0746 115.472 99.9568C117.487 101.761 119.92 102.073 121.568 102.073V97.7658V93.4588C121.246 93.4588 121.078 93.4247 121.021 93.4083C120.983 93.3974 121.082 93.4209 121.213 93.5375C121.353 93.6633 121.371 93.7553 121.337 93.6625C121.293 93.5404 121.195 93.1807 121.195 92.4557H116.89ZM121.568 97.7658V102.073C123.311 102.073 125.366 101.579 127.266 100.614C129.207 99.6292 131.256 98.0137 132.629 95.5572L128.872 93.4547L125.115 91.3522C124.754 91.9975 124.149 92.5376 123.371 92.9324C122.551 93.3484 121.822 93.4588 121.568 93.4588V97.7658ZM128.872 93.4547H133.177V66.3786H128.872H124.567V93.4547H128.872ZM128.872 66.3786H133.177C133.177 63.9773 132.818 61.6438 132.119 59.654C131.484 57.846 130.298 55.5591 128.092 54.318L125.982 58.0718L123.871 61.8256C123.553 61.6463 123.491 61.4946 123.591 61.6408C123.68 61.7714 123.834 62.0478 123.996 62.5094C124.322 63.4375 124.567 64.7843 124.567 66.3786H128.872ZM125.982 58.0718H130.287V56.9678H125.982H121.677V58.0718H125.982ZM125.982 56.9678L126.586 61.2321C133.273 60.2844 137.682 59.1906 143.962 55.0413L141.59 51.4474L139.217 47.8535C134.357 51.0647 131.303 51.8636 125.378 52.7033L125.982 56.9678ZM141.59 51.4474V55.7544H142.693V51.4474V47.1405H141.59V51.4474ZM142.693 51.4474H138.388V96.9771H142.693H146.998V51.4474H142.693ZM142.693 96.9771H138.388C138.388 98.5572 138.561 100.386 139.481 101.92C140.003 102.791 140.759 103.555 141.759 104.057C142.72 104.54 143.645 104.649 144.322 104.649V100.342V96.0351C144.555 96.0351 145.051 96.0718 145.622 96.3591C146.234 96.6658 146.638 97.1112 146.865 97.4887C147.06 97.815 147.077 98.0111 147.054 97.8909C147.034 97.7811 146.998 97.501 146.998 96.9771H142.693ZM144.322 100.342V104.649C144.903 104.649 145.404 104.556 145.612 104.518C145.685 104.504 145.893 104.464 145.899 104.463C145.965 104.45 145.984 104.448 145.982 104.448L145.374 100.184L144.764 95.9207C144.579 95.9472 144.414 95.9774 144.298 95.9992C144.24 96.01 144.183 96.0212 144.144 96.0289C144.1 96.0374 144.07 96.0431 144.044 96.0479C143.991 96.0579 143.995 96.056 144.029 96.0517C144.062 96.0474 144.169 96.0351 144.322 96.0351V100.342ZM145.374 100.184L141.376 101.784L141.797 102.835L145.794 101.236L149.791 99.6363L149.37 98.5846L145.374 100.184ZM145.794 101.236L143.104 97.8726C141.506 99.1517 138.935 100.083 136.702 100.083V104.39V108.697C140.881 108.697 145.352 107.105 148.484 104.599L145.794 101.236ZM136.702 104.39V100.083C135.471 100.083 134.675 99.7966 134.231 99.4821C133.892 99.2419 133.464 98.7934 133.284 97.6328L129.03 98.2915L124.775 98.9503C125.279 102.206 126.848 104.807 129.255 106.512C131.557 108.143 134.256 108.697 136.702 108.697V104.39ZM129.03 98.2915L125.46 95.8841C124.254 97.6736 123.018 98.6724 121.83 99.2567C120.62 99.8513 119.216 100.136 117.521 100.136V104.443V108.75C120.188 108.75 122.961 108.298 125.628 106.987C128.315 105.666 130.652 103.589 132.599 100.699L129.03 98.2915ZM117.521 104.443V100.136C115.776 100.136 113.114 99.3942 110.952 97.6667C108.935 96.055 107.374 93.6215 107.374 89.9322H103.069H98.7643C98.7643 96.4949 101.723 101.317 105.579 104.397C109.289 107.362 113.853 108.75 117.521 108.75V104.443ZM103.069 89.9322H107.374V66.3786H103.069H98.7643V89.9322H103.069ZM103.069 66.3786H107.374C107.374 63.9773 107.015 61.6438 106.316 59.654C105.681 57.846 104.495 55.5591 102.29 54.318L100.179 58.0718L98.0683 61.8256C97.7498 61.6463 97.688 61.4946 97.7882 61.6408C97.8776 61.7714 98.031 62.0478 98.1932 62.5094C98.5191 63.4375 98.7643 64.7843 98.7643 66.3786H103.069ZM100.179 58.0718H104.484V56.9678H100.179H95.8739V58.0718H100.179ZM100.179 56.9678L100.783 61.2321C107.47 60.2844 111.879 59.1906 118.159 55.0413L115.787 51.4474L113.414 47.8535C108.554 51.0647 105.5 51.8636 99.5751 52.7033L100.179 56.9678ZM115.787 51.4474V55.7544H116.89V51.4474V47.1405H115.787V51.4474ZM122.986 29.8917L119.931 32.9259L127.078 40.1287L130.133 37.0944L133.189 34.0602L126.042 26.8574L122.986 29.8917ZM130.133 37.0944L127.089 34.049L119.942 41.1991L122.986 44.2447L126.031 47.2901L133.178 40.1399L130.133 37.0944ZM122.986 44.2447L126.031 41.1991L118.883 34.049L115.839 37.0944L112.795 40.1399L119.942 47.2901L122.986 44.2447ZM115.839 37.0944L118.895 40.1287L126.042 32.9259L122.986 29.8917L119.931 26.8574L112.784 34.0602L115.839 37.0944ZM169.442 31.4689H173.747V27.162H169.442V31.4689ZM169.442 52.3937H165.137V56.7006H169.442V52.3937ZM188.466 52.3937L192.592 53.6243L194.242 48.0867H188.466V52.3937ZM185.943 60.8582L185.196 65.0997L188.973 65.7665L190.069 62.0889L185.943 60.8582ZM176.116 59.1233L176.864 54.8819L176.494 54.8163H176.116V59.1233ZM169.442 59.1233V54.8163H165.137V59.1233H169.442ZM179.638 81.8356L178.485 77.6858L174.754 78.7227L175.39 82.5436L179.638 81.8356ZM180.583 81.5727L183.96 78.9014L182.186 76.6572L179.431 77.423L180.583 81.5727ZM189.516 92.8764L193.677 93.9861L194.233 91.8993L192.894 90.2051L189.516 92.8764ZM155.673 59.1233H159.978V54.8163H155.673V59.1233ZM151.154 59.1233L147.255 60.9504L148.416 63.4302H151.154V59.1233ZM148.422 53.2875H144.117V54.2464L144.523 55.1147L148.422 53.2875ZM148.422 52.3937V48.0867H144.117V52.3937H148.422ZM168.338 31.4689V27.162H165.035L164.18 30.3538L168.338 31.4689ZM169.442 31.4689H165.137V52.3937H169.442H173.747V31.4689H169.442ZM169.442 52.3937V56.7006H188.466V52.3937V48.0867H169.442V52.3937ZM188.466 52.3937L184.34 51.1632L181.818 59.6277L185.943 60.8582L190.069 62.0889L192.592 53.6243L188.466 52.3937ZM185.943 60.8582L186.691 56.6169L176.864 54.8819L176.116 59.1233L175.369 63.3647L185.196 65.0997L185.943 60.8582ZM176.116 59.1233V54.8163H169.442V59.1233V63.4302H176.116V59.1233ZM169.442 59.1233H165.137V95.6628H169.442H173.747V59.1233H169.442ZM169.442 95.6628H165.137C165.137 96.456 165.108 98.2285 165.74 99.7933C166.114 100.722 166.786 101.769 167.948 102.541C169.099 103.305 170.348 103.545 171.44 103.545V99.2379V94.9309C171.584 94.9309 172.111 94.967 172.71 95.3643C173.321 95.7701 173.611 96.2888 173.723 96.5664C173.814 96.7918 173.796 96.8731 173.774 96.6455C173.756 96.4326 173.747 96.1374 173.747 95.6628H169.442ZM171.44 99.2379V103.545C174.397 103.545 176.486 101.488 177.567 100.21C178.847 98.696 179.952 96.7798 180.845 94.8711C182.585 91.1449 183.994 86.3922 183.994 82.8345H179.689H175.384C175.384 84.6395 174.509 88.0885 173.044 91.2234C172.334 92.7452 171.605 93.9241 170.993 94.6477C170.181 95.6076 170.32 94.9309 171.44 94.9309V99.2379ZM179.689 82.8345H183.994C183.994 82.5379 184.005 81.8568 183.884 81.1276L179.638 81.8356L175.39 82.5436C175.379 82.4717 175.38 82.4404 175.382 82.4875C175.383 82.5116 175.383 82.5488 175.384 82.6087C175.384 82.6707 175.384 82.7384 175.384 82.8345H179.689ZM179.638 81.8356L180.79 85.9854L181.736 85.7226L180.583 81.5727L179.431 77.423L178.485 77.6858L179.638 81.8356ZM180.583 81.5727L177.207 84.244L186.14 95.5477L189.516 92.8764L192.894 90.2051L183.96 78.9014L180.583 81.5727ZM189.516 92.8764L185.358 91.7666C184.8 93.8591 183.324 95.9838 181.249 97.6054C179.169 99.2325 176.831 100.083 174.855 100.083V104.39V108.697C179.133 108.697 183.286 106.946 186.552 104.393C189.824 101.835 192.553 98.2025 193.677 93.9861L189.516 92.8764ZM174.855 104.39V100.083C173.967 100.083 169.98 99.3501 166.276 96.9322C162.791 94.6559 159.978 91.1994 159.978 85.7262H155.673H151.368C151.368 94.8688 156.36 100.744 161.571 104.146C166.565 107.406 172.17 108.697 174.855 108.697V104.39ZM155.673 85.7262H159.978V59.1233H155.673H151.368V85.7262H155.673ZM155.673 59.1233V54.8163H151.154V59.1233V63.4302H155.673V59.1233ZM151.154 59.1233L155.053 57.2963L152.319 51.4604L148.422 53.2875L144.523 55.1147L147.255 60.9504L151.154 59.1233ZM148.422 53.2875H152.727V52.3937H148.422H144.117V53.2875H148.422ZM148.422 52.3937V56.7006H152.731V52.3937V48.0867H148.422V52.3937ZM152.731 52.3937V56.7006C156.045 56.7006 158.79 54.7886 160.716 52.9836C162.752 51.0729 164.592 48.6004 166.144 46.1456C169.222 41.2759 171.676 35.6462 172.497 32.5839L168.338 31.4689L164.18 30.3538C163.635 32.3914 161.595 37.2242 158.867 41.5419C157.514 43.6808 156.122 45.4833 154.826 46.6992C153.417 48.0207 152.727 48.0867 152.731 48.0867V52.3937ZM168.338 31.4689V35.7758H169.442V31.4689V27.162H168.338V31.4689ZM218.412 84.0251L222.695 84.4536L222.703 84.3845L222.707 84.3154L218.412 84.0251ZM218.514 92.547L214.242 93.0812L214.255 93.1835L214.272 93.285L218.514 92.547ZM219.831 96.808L223.797 95.1328L223.762 95.0476L223.723 94.9642L219.831 96.808ZM230.378 93.9673L234.669 94.3202L234.673 94.257L234.678 94.1937L230.378 93.9673ZM228.755 81.1844L224.776 82.8286L224.818 82.9295L224.865 83.0282L228.755 81.1844ZM230.581 74.8944L229.007 78.903L229.031 78.9123L229.054 78.9214L230.581 74.8944ZM235.651 78.0394L238.66 74.9583L238.64 74.9393L238.62 74.9205L235.651 78.0394ZM235.448 99.6487L232.372 96.6369L232.353 96.655L232.336 96.6732L235.448 99.6487ZM213.138 78.3438L210.06 75.3327L210.044 75.3496L210.028 75.3667L213.138 78.3438ZM223.483 76.5177V72.2107C220.544 72.2107 218.019 73.5355 216.366 75.9832C214.9 78.1531 214.308 80.9191 214.117 83.7346L218.412 84.0251L222.707 84.3154C222.855 82.126 223.275 81.1383 223.5 80.8058C223.578 80.6904 223.576 80.7364 223.466 80.7946C223.357 80.852 223.327 80.8246 223.483 80.8246V76.5177ZM218.412 84.0251L214.128 83.5965C213.979 85.0909 213.904 86.5865 213.904 88.0832H218.21H222.515C222.515 86.8742 222.575 85.6646 222.695 84.4536L218.412 84.0251ZM218.21 88.0832H213.904C213.904 89.6468 214.021 91.3161 214.242 93.0812L218.514 92.547L222.786 92.0128C222.601 90.5315 222.515 89.225 222.515 88.0832H218.21ZM218.514 92.547L214.272 93.285C214.602 95.1816 215.149 96.9793 215.941 98.6517L219.831 96.808L223.723 94.9642C223.298 94.0665 222.967 93.0235 222.754 91.8091L218.514 92.547ZM219.831 96.808L215.866 98.4833C217.419 102.163 220.264 105.68 225.004 105.68V101.373V97.0665C224.98 97.0665 225 97.0646 225.032 97.0772C225.06 97.0883 225.029 97.0834 224.937 97.0026C224.723 96.8141 224.291 96.3002 223.797 95.1328L219.831 96.808ZM225.004 101.373V105.68C227.903 105.68 230.469 104.457 232.214 102.052C233.778 99.8971 234.438 97.1332 234.669 94.3202L230.378 93.9673L226.088 93.6146C225.913 95.7388 225.474 96.6778 225.247 96.9915C225.165 97.1031 225.151 97.0835 225.212 97.053C225.267 97.0257 225.231 97.0665 225.004 97.0665V101.373ZM230.378 93.9673L234.678 94.1937C234.749 92.8296 234.785 91.4351 234.785 90.0107H230.48H226.175C226.175 91.2917 226.142 92.535 226.079 93.7409L230.378 93.9673ZM230.48 90.0107H234.785C234.785 88.3765 234.622 86.6478 234.32 84.8388L230.074 85.5468L225.828 86.2549C226.068 87.6923 226.175 88.9396 226.175 90.0107H230.48ZM230.074 85.5468L234.32 84.8388C233.995 82.8826 233.449 81.0373 232.646 79.3407L228.755 81.1844L224.865 83.0282C225.278 83.9016 225.613 84.9646 225.828 86.2549L230.074 85.5468ZM228.755 81.1844L232.735 79.5401C231.175 75.7615 228.29 72.2107 223.483 72.2107V76.5177V80.8246C223.528 80.8246 223.525 80.8302 223.503 80.822C223.486 80.8153 223.525 80.8252 223.621 80.9101C223.843 81.1068 224.284 81.6347 224.776 82.8286L228.755 81.1844ZM224.294 73.7784V78.0854C226.124 78.0854 227.676 78.3801 229.007 78.903L230.581 74.8944L232.155 70.8856C229.7 69.9206 227.061 69.4715 224.294 69.4715V73.7784ZM230.581 74.8944L229.054 78.9214C230.516 79.4761 231.706 80.2282 232.683 81.1582L235.651 78.0394L238.62 74.9205C236.757 73.145 234.567 71.8006 232.108 70.8674L230.581 74.8944ZM235.651 78.0394L232.643 81.1205C234.678 83.1081 235.707 85.5283 235.707 88.6919H240.012H244.317C244.317 83.3334 242.44 78.6519 238.66 74.9583L235.651 78.0394ZM240.012 88.6919H235.707C235.707 91.7126 234.659 94.2965 232.372 96.6369L235.448 99.6487L238.526 102.66C242.322 98.7785 244.317 94.0576 244.317 88.6919H240.012ZM235.448 99.6487L232.336 96.6732C230.295 98.8106 227.761 99.9072 224.396 99.9072V104.214V108.521C229.954 108.521 234.788 106.574 238.561 102.624L235.448 99.6487ZM224.396 104.214V99.9072C220.705 99.9072 218.07 98.7955 216.081 96.8062L213.038 99.8516L209.994 102.897C213.818 106.724 218.756 108.521 224.396 108.521V104.214ZM213.038 99.8516L216.081 96.8062C213.999 94.723 212.982 92.2753 212.982 89.1991H208.677H204.372C204.372 94.5097 206.262 99.1635 209.994 102.897L213.038 99.8516ZM208.677 89.1991H212.982C212.982 86.2348 214.005 83.669 216.249 81.3207L213.138 78.3438L210.028 75.3667C206.323 79.2408 204.372 83.9119 204.372 89.1991H208.677ZM213.138 78.3438L216.218 81.3548C218.339 79.1839 220.927 78.0854 224.294 78.0854V73.7784V69.4715C218.736 69.4715 213.889 71.4164 210.06 75.3327L213.138 78.3438ZM241.768 104.011L238.186 106.4L239.621 108.554L242.197 108.297L241.768 104.011ZM241.768 101.475V97.168H239.108L237.918 99.5487L241.768 101.475ZM244.912 101.069L246.511 105.068L246.677 105.001L246.838 104.921L244.912 101.069ZM246.129 100.257L249.711 102.646L249.942 102.299L250.103 101.914L246.129 100.257ZM246.636 78.2423H250.941V73.9354H246.636V78.2423ZM241.87 78.2423L239.482 81.8258L240.567 82.5492H241.87V78.2423ZM241.566 77.3292L237.984 74.9402L237.261 76.0252V77.3292H241.566ZM243.695 75.0972V70.7903H242.232L241.071 71.6834L243.695 75.0972ZM246.636 75.0972V79.4042H250.941V75.0972H246.636ZM251.707 62.1114L254.891 65.0085L254.92 64.9782L254.946 64.9475L251.707 62.1114ZM256.168 58.3576L258.287 62.1071L258.312 62.0927L258.338 62.078L256.168 58.3576ZM264.789 57.6476L267.07 53.9953L266.565 53.6796L265.994 53.5129L264.789 57.6476ZM266.512 58.865L263.869 62.2646L263.994 62.3612L264.124 62.4485L266.512 58.865ZM266.512 63.9375L262.82 61.7216L262.797 61.761L262.774 61.8007L266.512 63.9375ZM261.442 64.5463L258.397 67.5917L258.566 67.7604L258.753 67.9094L261.442 64.5463ZM255.458 63.4303L259.456 65.0298L259.473 64.9864L259.489 64.9425L255.458 63.4303ZM255.154 75.0972L250.857 75.366L251.11 79.4042H255.154V75.0972ZM261.847 78.2423V82.5492H263.358L264.536 81.6054L261.847 78.2423ZM255.358 78.2423V73.9354H251.053V78.2423H255.358ZM255.662 99.8516L251.631 101.364L251.665 101.457L251.704 101.548L255.662 99.8516ZM256.473 100.866L254.257 104.559L254.663 104.803L255.111 104.952L256.473 100.866ZM257.791 101.272L256.608 105.413L256.843 105.48L257.083 105.52L257.791 101.272ZM260.123 101.475L263.567 98.8907L262.276 97.168H260.123V101.475ZM260.326 102.794L256.048 102.318L256.021 102.555V102.794H260.326ZM260.123 104.011L259.668 108.294L262.26 108.57L263.705 106.4L260.123 104.011ZM250.997 103.504V99.1969C248.053 99.1969 244.832 99.3763 241.34 99.7255L241.768 104.011L242.197 108.297C245.465 107.97 248.395 107.811 250.997 107.811V103.504ZM241.768 104.011L245.35 101.622C245.584 101.972 245.704 102.279 245.763 102.459C245.826 102.646 245.852 102.785 245.862 102.846C245.882 102.96 245.871 102.962 245.871 102.794H241.566H237.261C237.261 103.234 237.284 103.744 237.37 104.263C237.444 104.709 237.625 105.558 238.186 106.4L241.768 104.011ZM241.566 102.794H245.871C245.871 102.635 245.881 102.603 245.871 102.662C245.867 102.696 245.852 102.777 245.819 102.893C245.786 103.006 245.727 103.185 245.62 103.401L241.768 101.475L237.918 99.5487C237.311 100.765 237.261 102.061 237.261 102.794H241.566ZM241.768 101.475V105.782C243.316 105.782 245.044 105.655 246.511 105.068L244.912 101.069L243.314 97.0702C243.426 97.0253 243.38 97.0617 243.068 97.1019C242.777 97.1395 242.352 97.168 241.768 97.168V101.475ZM244.912 101.069L246.838 104.921C247.258 104.711 247.703 104.469 248.111 104.196C248.409 103.997 249.148 103.491 249.711 102.646L246.129 100.257L242.547 97.8684C242.679 97.669 242.807 97.5182 242.902 97.4153C242.999 97.3106 243.083 97.2327 243.141 97.181C243.255 97.0817 243.332 97.0314 243.335 97.0288C243.338 97.0268 243.242 97.0893 242.986 97.2168L244.912 101.069ZM246.129 100.257L250.103 101.914C250.56 100.814 250.715 99.4681 250.8 98.4224C250.898 97.2114 250.941 95.7136 250.941 93.9673H246.636H242.331C242.331 95.6028 242.289 96.8442 242.219 97.73C242.183 98.1726 242.143 98.4764 242.11 98.6676C242.069 98.8979 242.062 98.8243 242.156 98.6009L246.129 100.257ZM246.636 93.9673H250.941V78.2423H246.636H242.331V93.9673H246.636ZM246.636 78.2423V73.9354H241.87V78.2423V82.5492H246.636V78.2423ZM241.87 78.2423L244.258 74.6586C245.173 75.2689 245.569 76.0815 245.726 76.5505C245.874 76.993 245.871 77.3018 245.871 77.3292H241.566H237.261C237.261 77.9684 237.312 80.3787 239.482 81.8258L241.87 78.2423ZM241.566 77.3292L245.148 79.7183C245.394 79.3479 245.763 78.9393 246.32 78.511L243.695 75.0972L241.071 71.6834C239.87 72.608 238.819 73.6873 237.984 74.9402L241.566 77.3292ZM243.695 75.0972V79.4042H246.636V75.0972V70.7903H243.695V75.0972ZM246.636 75.0972H250.941V74.0828H246.636H242.331V75.0972H246.636ZM246.636 74.0828H250.941C250.941 71.0813 252.094 68.0868 254.891 65.0085L251.707 62.1114L248.521 59.2143C244.558 63.5758 242.331 68.5622 242.331 74.0828H246.636ZM251.707 62.1114L254.946 64.9475C256.111 63.6164 257.232 62.7037 258.287 62.1071L256.168 58.3576L254.05 54.6082C251.995 55.7702 250.141 57.3599 248.467 59.2753L251.707 62.1114ZM256.168 58.3576L258.338 62.078C259.63 61.324 260.28 61.2443 260.428 61.2443V56.9373V52.6304C258.142 52.6304 255.952 53.4977 253.999 54.6374L256.168 58.3576ZM260.428 56.9373V61.2443C261.198 61.2443 262.236 61.3891 263.583 61.7822L264.789 57.6476L265.994 53.5129C264.095 52.9589 262.226 52.6304 260.428 52.6304V56.9373ZM264.789 57.6476L262.507 61.2998C262.9 61.5459 263.354 61.8636 263.869 62.2646L266.512 58.865L269.155 55.4652C268.454 54.9194 267.758 54.4254 267.07 53.9953L264.789 57.6476ZM266.512 58.865L264.124 62.4485C263.694 62.1614 263.397 61.766 263.24 61.3985C263.102 61.0779 263.12 60.8976 263.12 60.9955H267.425H271.73C271.73 59.1491 271.136 56.7728 268.9 55.2813L266.512 58.865ZM267.425 60.9955H263.12C263.12 61.0011 263.12 61.0528 263.085 61.1646C263.049 61.2807 262.973 61.4659 262.82 61.7216L266.512 63.9375L270.203 66.1535C271.114 64.6351 271.73 62.8957 271.73 60.9955H267.425ZM266.512 63.9375L262.774 61.8007C262.818 61.7244 262.983 61.4842 263.329 61.2826C263.676 61.0799 263.974 61.0509 264.078 61.0509V65.3578V69.6648C266.72 69.6648 268.95 68.3501 270.25 66.0744L266.512 63.9375ZM264.078 65.3578V61.0509C263.893 61.0509 263.839 61.0275 263.874 61.0385C263.892 61.0441 263.929 61.0574 263.978 61.0829C264.027 61.1086 264.08 61.1422 264.131 61.1831L261.442 64.5463L258.753 67.9094C260.366 69.2009 262.269 69.6648 264.078 69.6648V65.3578ZM261.442 64.5463L264.486 61.5008C263.765 60.78 262.982 60.0758 262.14 59.3867L259.413 62.7201L256.688 66.0535C257.332 66.5819 257.901 67.0951 258.397 67.5917L261.442 64.5463ZM259.413 62.7201L262.14 59.3867C260.64 58.1588 258.835 57.5001 256.879 57.5001V61.807V66.114C256.883 66.114 256.872 66.1143 256.849 66.1102C256.824 66.1061 256.794 66.0989 256.764 66.0876C256.732 66.0765 256.708 66.0644 256.692 66.0553C256.676 66.0462 256.675 66.0435 256.688 66.0535L259.413 62.7201ZM256.879 61.807V57.5001C254.992 57.5001 253.647 58.4963 252.878 59.3766C252.156 60.2017 251.716 61.1501 251.427 61.918L255.458 63.4303L259.489 64.9425C259.607 64.6282 259.605 64.765 259.357 65.049C259.061 65.3883 258.223 66.114 256.879 66.114V61.807ZM255.458 63.4303L251.462 61.8307C250.786 63.5206 250.545 65.3959 250.545 67.2855H254.85H259.155C259.155 66.0639 259.32 65.3689 259.456 65.0298L255.458 63.4303ZM254.85 67.2855H250.545C250.545 69.3753 250.652 72.0798 250.857 75.366L255.154 75.0972L259.45 74.8286C259.251 71.6217 259.155 69.1183 259.155 67.2855H254.85ZM255.154 75.0972V79.4042H262.963V75.0972V70.7903H255.154V75.0972ZM262.963 75.0972V79.4042C262.051 79.4042 261.128 79.089 260.385 78.4694C259.717 77.9132 259.406 77.2907 259.27 76.9505C259.027 76.3445 259.063 75.9338 259.063 76.1118H263.368H267.673C267.673 75.6135 267.641 74.6954 267.264 73.7513C267.06 73.2419 266.664 72.4925 265.896 71.852C265.051 71.1478 264.011 70.7903 262.963 70.7903V75.0972ZM263.368 76.1118H259.063C259.063 75.2052 259.435 74.6683 259.485 74.5976C259.545 74.5141 259.491 74.6127 259.158 74.8792L261.847 78.2423L264.536 81.6054C265.218 81.0602 265.925 80.3981 266.491 79.6043C267.049 78.8234 267.673 77.627 267.673 76.1118H263.368ZM261.847 78.2423V73.9354H255.358V78.2423V82.5492H261.847V78.2423ZM255.358 78.2423H251.053V93.9673H255.358H259.663V78.2423H255.358ZM255.358 93.9673H251.053C251.053 95.6878 251.077 97.1082 251.134 98.1972C251.162 98.7388 251.2 99.2493 251.255 99.6994C251.297 100.05 251.387 100.713 251.631 101.364L255.662 99.8516L259.693 98.3393C259.835 98.7194 259.835 98.9346 259.802 98.6594C259.78 98.484 259.755 98.1913 259.733 97.7523C259.687 96.8797 259.663 95.6287 259.663 93.9673H255.358ZM255.662 99.8516L251.704 101.548C252.155 102.6 252.937 103.766 254.257 104.559L256.473 100.866L258.687 97.173C259.333 97.5602 259.574 98.0499 259.618 98.155L255.662 99.8516ZM256.473 100.866L255.111 104.952C255.584 105.11 256.084 105.263 256.608 105.413L257.791 101.272L258.974 97.1308C258.552 97.01 258.172 96.893 257.835 96.7802L256.473 100.866ZM257.791 101.272L257.083 105.52C258.104 105.69 259.119 105.782 260.123 105.782V101.475V97.168C259.64 97.168 259.1 97.1239 258.499 97.0235L257.791 101.272ZM260.123 101.475L256.679 104.059C256.243 103.477 256.113 102.929 256.071 102.662C256.031 102.397 256.054 102.259 256.048 102.318L260.326 102.794L264.605 103.269C264.705 102.369 264.787 100.518 263.567 98.8907L260.123 101.475ZM260.326 102.794H256.021C256.021 102.962 256.011 102.96 256.029 102.846C256.039 102.785 256.065 102.646 256.128 102.459C256.189 102.279 256.308 101.972 256.542 101.622L260.123 104.011L263.705 106.4C264.266 105.558 264.447 104.709 264.522 104.263C264.608 103.743 264.631 103.234 264.631 102.794H260.326ZM260.123 104.011L260.578 99.7284C257.265 99.3757 254.07 99.1969 250.997 99.1969V103.504V107.811C253.738 107.811 256.628 107.97 259.668 108.294L260.123 104.011ZM348.883 27.4732L352.456 29.8752L354.883 26.2627L351.247 23.8733L348.883 27.4732ZM346.623 30.8381L343.05 28.4361L343.041 28.4491L343.033 28.4624L346.623 30.8381ZM342.576 46.3476L346.198 48.6766L348.212 45.5425L345.402 43.0976L342.576 46.3476ZM342.104 47.0837L339.675 50.639L343.331 53.1398L345.725 49.4127L342.104 47.0837ZM335.01 34.0977H339.315V29.7908H335.01V34.0977ZM318.141 34.0977V29.7908H313.836V34.0977H318.141ZM318.141 59.8593H313.836V63.4804L317.402 64.1024L318.141 59.8593ZM323.868 60.8582L323.129 65.1013L323.138 65.1026L323.868 60.8582ZM335.746 56.9151L335.53 52.6136L331.441 52.8182V56.9151H335.746ZM336.796 56.8625H341.101V52.335L336.581 52.5611L336.796 56.8625ZM318.141 67.5353L318.848 63.2869L313.836 62.4511V67.5353H318.141ZM298.013 113.749L294.196 115.741L295.776 118.771L299.085 117.92L298.013 113.749ZM297.382 112.539L295.234 108.807L291.656 110.869L293.566 114.532L297.382 112.539ZM303.006 65.1168H307.311V61.1284L303.336 60.8226L303.006 65.1168ZM294.387 69.4806L294.614 73.7815L298.692 73.5667V69.4806H294.387ZM293.388 69.5331H289.083V74.0728L293.615 73.8341L293.388 69.5331ZM303.006 58.1243L303.614 62.3881L307.311 61.8597V58.1243H303.006ZM303.006 33.3616H307.311V27.7191L301.871 29.2072L303.006 33.3616ZM288.396 80.3636L286.305 84.1284L292.701 87.6832V80.3636H288.396ZM340.002 21.6374L342.365 18.0376L338.949 15.7921L336.531 19.0905L340.002 21.6374ZM348.883 27.4732L345.31 25.0714L343.05 28.4361L346.623 30.8381L350.196 33.24L352.456 29.8752L348.883 27.4732ZM346.623 30.8381L343.033 28.4624C342.103 29.8687 340.465 32.1452 339.21 34.3529C337.974 36.5242 336.591 39.4654 336.591 42.5622H340.896H345.201C345.201 41.8212 345.603 40.5299 346.693 38.6136C347.762 36.7337 348.989 35.067 350.215 33.2138L346.623 30.8381ZM340.896 42.5622H336.591C336.591 45.0488 337.476 47.6173 339.752 49.5976L342.576 46.3476L345.402 43.0976C345.332 43.0366 345.296 42.9929 345.28 42.9703C345.264 42.9481 345.256 42.9316 345.248 42.9161C345.237 42.8903 345.201 42.7911 345.201 42.5622H340.896ZM342.576 46.3476L338.956 44.0186L338.482 44.7546L342.104 47.0837L345.725 49.4127L346.198 48.6766L342.576 46.3476ZM342.104 47.0837L344.534 43.5283C340.465 40.7454 339.315 37.7197 339.315 34.9388H335.01H330.704C330.704 40.7803 333.443 46.3769 339.675 50.639L342.104 47.0837ZM335.01 34.9388H339.315V34.0977H335.01H330.704V34.9388H335.01ZM335.01 34.0977V29.7908H318.141V34.0977V38.4046H335.01V34.0977ZM318.141 34.0977H313.836V59.8593H318.141H322.446V34.0977H318.141ZM318.141 59.8593L317.402 64.1024L323.129 65.1013L323.868 60.8582L324.609 56.6153L318.88 55.6164L318.141 59.8593ZM323.868 60.8582L323.138 65.1026C324.761 65.3827 326.981 65.6909 329.229 65.6909V61.384V57.077C327.694 57.077 326.025 56.8597 324.6 56.614L323.868 60.8582ZM329.229 61.384V65.6909C331.144 65.6909 333.662 65.4626 335.836 64.2571C336.993 63.6157 338.102 62.6686 338.901 61.3208C339.703 59.9704 340.051 58.4598 340.051 56.9151H335.746H331.441C331.441 57.158 331.393 57.0999 331.498 56.9226C331.603 56.7478 331.713 56.6944 331.662 56.7234C331.581 56.7675 331.352 56.8683 330.897 56.9508C330.451 57.032 329.892 57.077 329.229 57.077V61.384ZM335.746 56.9151L335.961 61.2167L337.011 61.1642L336.796 56.8625L336.581 52.5611L335.53 52.6136L335.746 56.9151ZM336.796 56.8625H332.491C332.491 59.9803 331.464 61.5811 330.373 62.4875C329.15 63.5038 327.262 64.1222 324.92 64.1222V68.4291V72.736C328.621 72.736 332.67 71.777 335.875 69.113C339.213 66.3392 341.101 62.1568 341.101 56.8625H336.796ZM324.92 68.4291V64.1222C323.184 64.1222 320.779 63.6088 318.848 63.2869L318.141 67.5353L317.432 71.7836C318.656 71.9875 322.241 72.736 324.92 72.736V68.4291ZM318.141 67.5353H313.836V95.8206H318.141H322.446V67.5353H318.141ZM318.141 95.8206H313.836C313.836 100.531 311.936 103.14 309.12 105.037C305.958 107.168 301.671 108.361 296.941 109.577L298.013 113.749L299.085 117.92C303.551 116.771 309.33 115.281 313.931 112.182C318.88 108.847 322.446 103.676 322.446 95.8206H318.141ZM298.013 113.749L301.831 111.756L301.199 110.547L297.382 112.539L293.566 114.532L294.196 115.741L298.013 113.749ZM297.382 112.539L299.532 116.271C306.461 112.277 307.311 105.57 307.311 100.605H303.006H298.701C298.701 104.788 297.973 107.229 295.234 108.807L297.382 112.539ZM303.006 100.605H307.311V65.1168H303.006H298.701V100.605H303.006ZM303.006 65.1168L303.336 60.8226C302.654 60.7701 301.77 60.7048 300.85 60.7048V65.0117V69.3186C301.403 69.3186 301.99 69.3584 302.676 69.4111L303.006 65.1168ZM300.85 65.0117V60.7048C298.938 60.7048 296.422 60.9322 294.254 62.1483C293.097 62.7962 291.998 63.7496 291.209 65.0981C290.421 66.4459 290.082 67.9484 290.082 69.4806H294.387H298.692C298.692 69.225 298.741 69.2753 298.639 69.45C298.537 69.6254 298.422 69.685 298.463 69.6626C298.531 69.624 298.75 69.5256 299.196 69.444C299.635 69.3638 300.188 69.3186 300.85 69.3186V65.0117ZM294.387 69.4806L294.16 65.1795L293.162 65.2322L293.388 69.5331L293.615 73.8341L294.614 73.7815L294.387 69.4806ZM293.388 69.5331H297.693C297.693 66.8094 298.499 65.2631 299.381 64.3368C300.32 63.3524 301.747 62.6549 303.614 62.3881L303.006 58.1243L302.397 53.8608C299.114 54.3299 295.733 55.6829 293.15 58.3918C290.513 61.1589 289.083 64.9489 289.083 69.5331H293.388ZM303.006 58.1243H307.311V33.3616H303.006H298.701V58.1243H303.006ZM303.006 33.3616L301.871 29.2072C285.578 33.6637 276.838 49.4166 276.838 63.6447H281.143H285.448C285.448 52.4267 292.371 40.7355 304.141 37.5161L303.006 33.3616ZM281.143 63.6447H276.838C276.838 67.0069 277.421 70.9873 278.79 74.626C280.137 78.203 282.456 81.9892 286.305 84.1284L288.396 80.3636L290.487 76.5986C289.134 75.8462 287.826 74.1909 286.848 71.5902C285.892 69.0516 285.448 66.1184 285.448 63.6447H281.143ZM288.396 80.3636H292.701C292.701 80.3617 292.701 80.3976 292.688 80.4632C292.674 80.5296 292.648 80.6164 292.603 80.7152C292.51 80.9235 292.367 81.1064 292.205 81.2434C291.916 81.489 291.669 81.516 291.549 81.516V77.2091V72.9021C289.957 72.9021 288.135 73.4023 286.637 74.6731C285.027 76.0393 284.091 78.0496 284.091 80.3636H288.396ZM291.549 77.2091V81.516C291.005 81.516 290.655 81.2879 290.475 81.1088C290.284 80.9179 290.082 80.5768 290.082 80.1007H294.387H298.692C298.692 76.1448 295.399 72.9021 291.549 72.9021V77.2091ZM294.387 80.1007H290.082C290.082 79.6966 290.241 79.4039 290.415 79.2203C290.597 79.0297 290.962 78.7906 291.497 78.7906V83.0975V87.4044C295.647 87.4044 298.692 83.8561 298.692 80.1007H294.387ZM291.497 83.0975V78.7906C290.3 78.7906 288.403 77.8753 286.553 74.8418C284.787 71.9421 283.61 67.8775 283.61 63.6974H279.305H275C275 69.3486 276.556 74.9841 279.203 79.3265C281.768 83.5351 285.967 87.4044 291.497 87.4044V83.0975ZM279.305 63.6974H283.61C283.61 44.1528 296.365 28.6257 315.67 28.6257V24.3188V20.0119C290.623 20.0119 275 40.446 275 63.6974H279.305ZM315.67 24.3188V28.6257H334.8V24.3188V20.0119H315.67V24.3188ZM334.8 24.3188V28.6257C338.386 28.6257 341.576 26.7736 343.473 24.1844L340.002 21.6374L336.531 19.0905C336.116 19.6558 335.417 20.0119 334.8 20.0119V24.3188ZM340.002 21.6374L337.638 25.2373L346.52 31.0731L348.883 27.4732L351.247 23.8733L342.365 18.0376L340.002 21.6374ZM359.498 50.7114V46.4045H357.284L355.995 48.2079L359.498 50.7114ZM366.33 95.0319L363.678 98.4243L363.68 98.4259L366.33 95.0319ZM364.597 29.8917L367.652 26.8574L364.597 23.7783L361.542 26.8574L364.597 29.8917ZM371.743 37.0944L374.788 40.1399L377.82 37.1056L374.798 34.0602L371.743 37.0944ZM364.597 44.2447L361.552 47.2901L364.597 50.3355L367.64 47.2901L364.597 44.2447ZM357.449 37.0944L354.394 34.0602L351.372 37.1056L354.405 40.1399L357.449 37.0944ZM359.498 50.7114V55.0183C374.279 55.0183 381.102 64.9446 381.102 74.0545H385.407H389.712C389.712 60.347 379.192 46.4045 359.498 46.4045V50.7114ZM385.407 74.0545H381.102C381.102 80.5495 379.719 87.2795 376.71 92.2289C373.828 96.9703 369.504 100.083 362.915 100.083V104.39V108.697C372.931 108.697 379.854 103.635 384.067 96.7045C388.152 89.9823 389.712 81.5446 389.712 74.0545H385.407ZM362.915 104.39V100.083C358.882 100.083 355.256 97.7854 352.455 93.9362C349.632 90.0575 348.091 85.1522 348.091 81.2573H343.786H339.481C339.481 87.0887 341.669 93.75 345.495 99.0061C349.341 104.292 355.281 108.697 362.915 108.697V104.39ZM343.786 81.2573H348.091C348.091 75.0382 350.17 70.2485 353.053 65.9332C354.521 63.7357 356.18 61.6887 357.917 59.5959C359.606 57.5608 361.441 55.4001 363.002 53.2147L359.498 50.7114L355.995 48.2079C354.665 50.0708 353.092 51.9255 351.293 54.0932C349.542 56.203 347.633 58.546 345.896 61.1461C342.368 66.4255 339.481 72.8605 339.481 81.2573H343.786ZM359.184 60.1222V55.8152C356.506 55.8152 353.99 56.9409 352.26 59.1956C350.63 61.3218 349.991 64.0568 349.991 66.9044H354.296H358.601C358.601 65.2305 358.987 64.5744 359.091 64.4399C359.131 64.388 359.128 64.409 359.079 64.4323C359.036 64.4529 359.053 64.4291 359.184 64.4291V60.1222ZM354.296 66.9044H349.991C349.991 71.7642 351.571 78.0993 353.884 83.7612C356.164 89.3392 359.522 95.172 363.678 98.4243L366.33 95.0319L368.983 91.6396C366.623 89.792 363.964 85.662 361.854 80.5016C359.781 75.425 358.601 70.2462 358.601 66.9044H354.296ZM366.33 95.0319L363.68 98.4259C365.775 100.063 368.163 101.232 370.744 101.232V96.9246V92.6177C370.805 92.6177 370.249 92.6297 368.981 91.638L366.33 95.0319ZM370.744 96.9246V101.232C372.486 101.232 374.111 100.717 375.478 99.7082C376.794 98.7367 377.661 97.4658 378.231 96.2448C379.331 93.8901 379.621 91.1028 379.621 88.7229H375.316H371.011C371.011 90.6017 370.75 91.9151 370.431 92.5966C370.292 92.8938 370.233 92.8748 370.367 92.7757C370.437 92.7236 370.528 92.6761 370.622 92.6455C370.716 92.6155 370.766 92.6177 370.744 92.6177V96.9246ZM375.316 88.7229H379.621C379.621 81.4455 377.332 73.5864 373.976 67.4939C372.293 64.4361 370.239 61.6389 367.887 59.5509C365.571 57.4944 362.599 55.8152 359.184 55.8152V60.1222V64.4291C359.709 64.4291 360.725 64.7085 362.173 65.9937C363.585 67.2476 365.072 69.1755 366.436 71.6512C369.176 76.6258 371.011 83.0669 371.011 88.7229H375.316ZM364.597 29.8917L361.542 32.9259L368.688 40.1287L371.743 37.0944L374.798 34.0602L367.652 26.8574L364.597 29.8917ZM371.743 37.0944L368.699 34.049L361.552 41.1991L364.597 44.2447L367.64 47.2901L374.788 40.1399L371.743 37.0944ZM364.597 44.2447L367.64 41.1991L360.494 34.049L357.449 37.0944L354.405 40.1399L361.552 47.2901L364.597 44.2447ZM357.449 37.0944L360.504 40.1287L367.652 32.9259L364.597 29.8917L361.542 26.8574L354.394 34.0602L357.449 37.0944ZM405.166 50.7114V46.4045H402.979L401.689 48.1717L405.166 50.7114ZM428.446 63.1189L432.078 65.4322L433.096 63.8335L432.605 62.003L428.446 63.1189ZM420.248 75.9998L418.943 80.104L422.101 81.109L423.88 78.3131L420.248 75.9998ZM419.093 75.6319L414.795 75.3789L414.598 78.7209L417.787 79.7359L419.093 75.6319ZM419.144 74.738L423.442 74.991L423.449 74.8647V74.738H419.144ZM428.552 85.6211L430.263 81.6692L426.512 80.0426L424.695 83.7076L428.552 85.6211ZM430.128 86.3044L434.279 87.4479L435.272 83.8404L431.84 82.3527L430.128 86.3044ZM410.158 108.333L413.213 105.299L410.158 102.22L407.103 105.299L410.158 108.333ZM417.306 115.536L420.35 118.582L423.383 115.547L420.361 112.502L417.306 115.536ZM410.158 122.686L407.097 125.715L410.141 128.794L413.203 125.732L410.158 122.686ZM403.012 115.536L399.957 112.502L396.935 115.547L399.967 118.582L403.012 115.536ZM405.166 50.7114V55.0183C416.59 55.0183 422.794 58.6581 424.289 64.235L428.446 63.1189L432.605 62.003C429.475 50.3354 417.391 46.4045 405.166 46.4045V50.7114ZM428.446 63.1189L424.816 60.8057L416.617 73.6866L420.248 75.9998L423.88 78.3131L432.078 65.4322L428.446 63.1189ZM420.248 75.9998L421.554 71.8956L420.397 71.5276L419.093 75.6319L417.787 79.7359L418.943 80.104L420.248 75.9998ZM419.093 75.6319L423.391 75.8847L423.442 74.991L419.144 74.738L414.848 74.4851L414.795 75.3789L419.093 75.6319ZM419.144 74.738H423.449C423.449 72.3638 422.68 70.0106 421.687 67.9803C420.671 65.9041 419.285 63.889 417.735 62.123C416.188 60.3619 414.383 58.7409 412.464 57.5291C410.607 56.3573 408.287 55.3421 405.797 55.3421V59.649V63.9559C406.014 63.9559 406.714 64.0843 407.868 64.8133C408.96 65.5025 410.153 66.5398 411.266 67.8083C412.377 69.072 413.312 70.4579 413.954 71.7678C414.617 73.1236 414.839 74.1418 414.839 74.738H419.144ZM405.797 59.649V55.3421C404.154 55.3421 402.57 55.819 401.204 56.808C399.884 57.7641 398.978 59.0426 398.36 60.3466C397.167 62.8622 396.762 66.0609 396.762 69.428H401.068H405.373C405.373 66.5388 405.756 64.8477 406.139 64.038C406.31 63.6796 406.39 63.6863 406.251 63.7864C406.067 63.9194 405.863 63.9559 405.797 63.9559V59.649ZM401.068 69.428H396.762C396.762 75.3779 398.21 82.628 401.131 88.5305C403.959 94.246 408.934 100.075 416.517 100.075V95.7679V91.461C413.958 91.461 411.209 89.4825 408.847 84.7093C406.578 80.1231 405.373 74.2033 405.373 69.428H401.068ZM416.517 95.7679V100.075C419.771 100.075 422.927 98.5264 425.512 96.418C428.166 94.2517 430.586 91.2116 432.408 87.5343L428.552 85.6211L424.695 83.7076C423.365 86.392 421.684 88.4253 420.07 89.7421C418.385 91.117 417.099 91.461 416.517 91.461V95.7679ZM428.552 85.6211L426.84 89.5728L428.416 90.2563L430.128 86.3044L431.84 82.3527L430.263 81.6692L428.552 85.6211ZM430.128 86.3044L425.978 85.1611C425.051 88.5303 423.533 92.3852 421.106 95.3263C418.793 98.1301 415.699 100.083 411.157 100.083V104.39V108.697C418.702 108.697 424.095 105.235 427.746 100.81C431.285 96.5219 433.209 91.3341 434.279 87.4479L430.128 86.3044ZM411.157 104.39V100.083C404.708 100.083 400.76 97.8875 398.344 95.0011C395.824 91.9893 394.547 87.7071 394.547 82.9397H390.242H385.937C385.937 89.108 387.576 95.551 391.743 100.531C396.015 105.636 402.524 108.697 411.157 108.697V104.39ZM390.242 82.9397H394.547C394.547 77.4258 396.384 72.2387 399.13 67.2457C401.91 62.1918 405.413 57.6774 408.643 53.2509L405.166 50.7114L401.689 48.1717C398.665 52.315 394.706 57.4217 391.586 63.0931C388.434 68.8255 385.937 75.4676 385.937 82.9397H390.242ZM410.158 108.333L407.103 111.368L414.251 118.57L417.306 115.536L420.361 112.502L413.213 105.299L410.158 108.333ZM417.306 115.536L414.261 112.491L407.115 119.641L410.158 122.686L413.203 125.732L420.35 118.582L417.306 115.536ZM410.158 122.686L413.219 119.658C408.501 114.885 410.76 117.196 406.056 112.491L403.012 115.536L399.967 118.582C404.829 123.444 402.358 120.919 407.097 125.715L410.158 122.686ZM403.012 115.536L406.067 118.57L413.213 111.368L410.158 108.333L407.103 105.299L399.957 112.502L403.012 115.536ZM449.888 51.4474H454.193V47.1405H449.888V51.4474ZM461.869 93.4547L465.627 95.5572L466.174 94.5773V93.4547H461.869ZM458.979 58.0718H454.674V60.5908L456.868 61.8256L458.979 58.0718ZM458.979 56.9678L458.375 52.7033L454.674 53.2279V56.9678H458.979ZM474.588 51.4474V47.1405H473.293L472.214 47.8535L474.588 51.4474ZM475.691 51.4474H479.996V47.1405H475.691V51.4474ZM478.37 100.184L482.368 98.5846L481.111 95.4419L477.762 95.9207L478.37 100.184ZM478.791 101.236L481.48 104.599L483.974 102.603L482.789 99.6363L478.791 101.236ZM462.027 98.2915L466.282 97.6328L464.601 86.7676L458.458 95.8841L462.027 98.2915ZM433.176 58.0718H428.871V60.5908L431.065 61.8256L433.176 58.0718ZM433.176 56.9678L432.572 52.7033L428.871 53.2279V56.9678H433.176ZM448.785 51.4474V47.1405H447.492L446.413 47.8535L448.785 51.4474ZM455.984 29.8917L459.039 26.8574L455.984 23.7783L452.929 26.8574L455.984 29.8917ZM463.13 37.0944L466.176 40.1399L469.208 37.1056L466.186 34.0602L463.13 37.0944ZM455.984 44.2447L452.939 47.2901L455.984 50.3355L459.028 47.2901L455.984 44.2447ZM448.836 37.0944L445.781 34.0602L442.759 37.1056L445.793 40.1399L448.836 37.0944ZM449.888 51.4474H445.583V92.4557H449.888H454.193V51.4474H449.888ZM449.888 92.4557H445.583C445.583 95.3619 446.367 98.0746 448.469 99.9568C450.484 101.761 452.917 102.073 454.565 102.073V97.7658V93.4588C454.243 93.4588 454.075 93.4247 454.018 93.4083C453.981 93.3974 454.08 93.4209 454.21 93.5375C454.351 93.6633 454.368 93.7553 454.335 93.6625C454.291 93.5404 454.193 93.1807 454.193 92.4557H449.888ZM454.565 97.7658V102.073C456.308 102.073 458.363 101.579 460.263 100.614C462.205 99.6292 464.254 98.0137 465.627 95.5572L461.869 93.4547L458.112 91.3522C457.752 91.9975 457.146 92.5376 456.369 92.9324C455.549 93.3484 454.819 93.4588 454.565 93.4588V97.7658ZM461.869 93.4547H466.174V66.3786H461.869H457.564V93.4547H461.869ZM461.869 66.3786H466.174C466.174 63.9773 465.815 61.6438 465.116 59.654C464.482 57.846 463.295 55.5591 461.09 54.318L458.979 58.0718L456.868 61.8256C456.549 61.6463 456.488 61.4946 456.588 61.6408C456.677 61.7714 456.831 62.0478 456.993 62.5094C457.319 63.4375 457.564 64.7843 457.564 66.3786H461.869ZM458.979 58.0718H463.284V56.9678H458.979H454.674V58.0718H458.979ZM458.979 56.9678L459.583 61.2321C466.27 60.2844 470.679 59.1906 476.96 55.0413L474.588 51.4474L472.214 47.8535C467.354 51.0647 464.301 51.8636 458.375 52.7033L458.979 56.9678ZM474.588 51.4474V55.7544H475.691V51.4474V47.1405H474.588V51.4474ZM475.691 51.4474H471.386V96.9771H475.691H479.996V51.4474H475.691ZM475.691 96.9771H471.386C471.386 98.5572 471.558 100.386 472.478 101.92C473 102.791 473.757 103.555 474.757 104.057C475.718 104.54 476.641 104.649 477.32 104.649V100.342V96.0351C477.551 96.0351 478.049 96.0718 478.62 96.3591C479.231 96.6658 479.636 97.1112 479.861 97.4887C480.058 97.815 480.075 98.0111 480.052 97.8909C480.032 97.7811 479.996 97.501 479.996 96.9771H475.691ZM477.32 100.342V104.649C477.9 104.649 478.402 104.556 478.61 104.518C478.683 104.504 478.891 104.464 478.895 104.463C478.963 104.45 478.982 104.448 478.98 104.448L478.37 100.184L477.762 95.9207C477.575 95.9472 477.41 95.9774 477.295 95.9992C477.238 96.01 477.181 96.0212 477.142 96.0289C477.097 96.0374 477.067 96.0431 477.041 96.0479C476.987 96.0579 476.993 96.056 477.026 96.0517C477.06 96.0474 477.166 96.0351 477.32 96.0351V100.342ZM478.37 100.184L474.374 101.784L474.794 102.835L478.791 101.236L482.789 99.6363L482.368 98.5846L478.37 100.184ZM478.791 101.236L476.101 97.8726C474.504 99.1517 471.933 100.083 469.7 100.083V104.39V108.697C473.879 108.697 478.349 107.105 481.48 104.599L478.791 101.236ZM469.7 104.39V100.083C468.469 100.083 467.672 99.7966 467.229 99.4821C466.889 99.2419 466.461 98.7934 466.282 97.6328L462.027 98.2915L457.773 98.9503C458.276 102.206 459.846 104.807 462.252 106.512C464.554 108.143 467.253 108.697 469.7 108.697V104.39ZM462.027 98.2915L458.458 95.8841C457.251 97.6736 456.016 98.6724 454.827 99.2567C453.618 99.8513 452.214 100.136 450.518 100.136V104.443V108.75C453.184 108.75 455.958 108.298 458.624 106.987C461.312 105.666 463.65 103.589 465.597 100.699L462.027 98.2915ZM450.518 104.443V100.136C448.773 100.136 446.111 99.3942 443.949 97.6667C441.932 96.055 440.371 93.6215 440.371 89.9322H436.066H431.761C431.761 96.4949 434.72 101.317 438.576 104.397C442.287 107.362 446.85 108.75 450.518 108.75V104.443ZM436.066 89.9322H440.371V66.3786H436.066H431.761V89.9322H436.066ZM436.066 66.3786H440.371C440.371 63.9773 440.012 61.6438 439.314 59.654C438.679 57.846 437.492 55.5591 435.287 54.318L433.176 58.0718L431.065 61.8256C430.746 61.6463 430.685 61.4946 430.785 61.6408C430.876 61.7714 431.028 62.0478 431.19 62.5094C431.517 63.4375 431.761 64.7843 431.761 66.3786H436.066ZM433.176 58.0718H437.481V56.9678H433.176H428.871V58.0718H433.176ZM433.176 56.9678L433.78 61.2321C440.467 60.2844 444.876 59.1906 451.157 55.0413L448.785 51.4474L446.413 47.8535C441.551 51.0647 438.498 51.8636 432.572 52.7033L433.176 56.9678ZM448.785 51.4474V55.7544H449.888V51.4474V47.1405H448.785V51.4474ZM455.984 29.8917L452.929 32.9259L460.075 40.1287L463.13 37.0944L466.186 34.0602L459.039 26.8574L455.984 29.8917ZM463.13 37.0944L460.087 34.049L452.939 41.1991L455.984 44.2447L459.028 47.2901L466.176 40.1399L463.13 37.0944ZM455.984 44.2447L459.028 41.1991L451.881 34.049L448.836 37.0944L445.793 40.1399L452.939 47.2901L455.984 44.2447ZM448.836 37.0944L451.891 40.1287L459.039 32.9259L455.984 29.8917L452.929 26.8574L445.781 34.0602L448.836 37.0944ZM483.783 87.7765L487.023 84.9404L484.488 82.0404L481.325 84.241L483.783 87.7765ZM496.344 50.7114V46.4045H494.56L493.299 47.6658L496.344 50.7114ZM520.202 61.2789L523.925 63.4428L525.182 61.278L523.923 59.1136L520.202 61.2789ZM513.423 72.9505L512.117 77.0547L515.409 78.1026L517.146 75.1143L513.423 72.9505ZM512.267 72.5824L508.091 71.5378L507.109 75.4606L510.961 76.6866L512.267 72.5824ZM492.664 66.2735L488.58 67.6355L488.662 67.88L488.773 68.1131L492.664 66.2735ZM482.575 88.6178L480.117 85.0823L477.737 86.7377L478.376 89.5655L482.575 88.6178ZM495.135 108.333L498.196 105.305L495.141 102.214L492.079 105.299L495.135 108.333ZM502.124 115.326L499.08 118.371L502.135 121.428L505.179 118.36L502.124 115.326ZM509.061 108.333L512.105 105.288L509.049 102.231L506.006 105.299L509.061 108.333ZM516.209 115.536L519.252 118.582L522.28 115.553L519.27 112.508L516.209 115.536ZM509.061 122.686L506.006 125.72L509.049 128.789L512.105 125.732L509.061 122.686ZM502.124 115.694L505.179 112.66L502.135 109.591L499.08 112.648L502.124 115.694ZM495.135 122.686L492.09 125.732L495.153 128.794L498.196 125.714L495.135 122.686ZM487.988 115.536L484.933 112.502L481.91 115.547L484.944 118.582L487.988 115.536ZM483.783 87.7765L480.544 90.6127C486.217 97.0985 495.929 98.9183 503.281 98.9183V94.6114V90.3044C496.652 90.3044 490.179 88.5491 487.023 84.9404L483.783 87.7765ZM503.281 94.6114V98.9183C507.01 98.9183 510.601 98.4503 513.396 97.6029C514.766 97.1876 516.19 96.6093 517.367 95.7781C518.414 95.0375 520.198 93.4106 520.198 90.7733H515.893H511.588C511.588 89.1876 512.648 88.5663 512.399 88.7423C512.278 88.8279 511.829 89.0777 510.901 89.3589C509.098 89.9049 506.382 90.3044 503.281 90.3044V94.6114ZM515.893 90.7733H520.198C520.198 88.2611 518.568 86.6173 517.44 85.773C516.214 84.857 514.652 84.1546 512.945 83.5855L511.584 87.6715L510.222 91.7573C510.84 91.9635 511.315 92.1564 511.668 92.3249C512.028 92.4965 512.215 92.6201 512.284 92.6718C512.363 92.7311 512.221 92.6454 512.04 92.3677C511.84 92.0632 511.588 91.5124 511.588 90.7733H515.893ZM511.584 87.6715L512.945 83.5855C510.645 82.8184 507.662 82.1068 504.962 81.3924C502.123 80.6405 499.333 79.8252 496.859 78.7726C491.762 76.6036 489.456 74.117 489.456 70.5846H485.151H480.846C480.846 79.5125 487.498 84.1497 493.49 86.6992C496.56 88.0061 499.847 88.9486 502.761 89.7198C505.816 90.5285 508.266 91.1049 510.222 91.7573L511.584 87.6715ZM485.151 70.5846H489.456C489.456 67.9447 490.687 64.8754 492.773 61.6846C494.813 58.5649 497.377 55.7686 499.387 53.7568L496.344 50.7114L493.299 47.6658C491.106 49.8602 488.074 53.1362 485.567 56.9695C483.107 60.7316 480.846 65.4961 480.846 70.5846H485.151ZM496.344 50.7114V55.0183C507.497 55.0183 513.277 57.9334 516.48 63.4441L520.202 61.2789L523.923 59.1136C518.509 49.7983 508.943 46.4045 496.344 46.4045V50.7114ZM520.202 61.2789L516.48 59.1149L509.701 70.7866L513.423 72.9505L517.146 75.1143L523.925 63.4428L520.202 61.2789ZM513.423 72.9505L514.728 68.8463L513.573 68.4783L512.267 72.5824L510.961 76.6866L512.117 77.0547L513.423 72.9505ZM512.267 72.5824L516.443 73.627C516.649 72.8016 516.625 71.9687 516.625 71.899H512.32H508.015C508.015 71.9556 508.015 71.9814 508.013 72.0034C508.013 72.0231 508.013 72.0198 508.015 72.0018C508.015 71.9846 508.018 71.9368 508.028 71.8673C508.036 71.7997 508.053 71.6847 508.091 71.5378L512.267 72.5824ZM512.32 71.899H516.625C516.625 69.2573 515.493 66.9225 514.18 65.1099C512.841 63.2596 511.076 61.6175 509.22 60.2636C505.656 57.6626 500.868 55.4998 496.711 55.4998V59.8068V64.1137C498.334 64.1137 501.352 65.1842 504.146 67.223C505.47 68.1889 506.524 69.2183 507.207 70.1626C507.917 71.1449 508.015 71.7279 508.015 71.899H512.32ZM496.711 59.8068V55.4998C494.312 55.4998 492.006 56.259 490.297 57.9839C488.609 59.6875 487.939 61.8943 487.939 63.9602H492.244H496.549C496.549 63.8358 496.569 63.801 496.558 63.8345C496.55 63.8515 496.537 63.8831 496.512 63.9233C496.486 63.9641 496.453 64.0072 496.413 64.0479C496.371 64.089 496.331 64.1199 496.298 64.1413C496.265 64.1624 496.248 64.1682 496.255 64.1658C496.266 64.1611 496.401 64.1137 496.711 64.1137V59.8068ZM492.244 63.9602H487.939C487.939 65.2858 488.217 66.5464 488.58 67.6355L492.664 66.2735L496.748 64.9115C496.586 64.4234 496.549 64.1068 496.549 63.9602H492.244ZM492.664 66.2735L488.773 68.1131C490.512 71.7984 494.13 73.7535 497.074 75.019C498.643 75.6936 500.33 76.2933 501.933 76.8546C503.579 77.4314 505.149 77.9725 506.685 78.5795C509.797 79.8093 512.251 81.1206 513.93 82.8293C515.457 84.3835 516.527 86.4512 516.527 89.7744H520.832H525.137C525.137 84.2126 523.194 79.9712 520.072 76.792C517.1 73.7674 513.271 71.9209 509.847 70.5679C508.115 69.8837 506.354 69.277 504.779 68.725C503.159 68.1573 501.734 67.6468 500.472 67.1047C497.756 65.9371 496.84 65.0335 496.558 64.4338L492.664 66.2735ZM520.832 89.7744H516.527C516.527 92.2124 515.19 94.708 512.506 96.7486C509.821 98.7897 506.116 100.083 502.335 100.083V104.39V108.697C507.959 108.697 513.502 106.81 517.715 103.607C521.93 100.403 525.137 95.5908 525.137 89.7744H520.832ZM502.335 104.39V100.083C492.85 100.083 488.052 93.3387 486.775 87.6702L482.575 88.6178L478.376 89.5655C480.25 97.8819 487.645 108.697 502.335 108.697V104.39ZM482.575 88.6178L485.033 92.1534L486.243 91.3121L483.783 87.7765L481.325 84.241L480.117 85.0823L482.575 88.6178ZM495.135 108.333L492.073 111.362C496.687 116.029 494.483 113.772 499.08 118.371L502.124 115.326L505.168 112.28C500.411 107.521 502.831 109.996 498.196 105.305L495.135 108.333ZM502.124 115.326L505.179 118.36L512.116 111.367L509.061 108.333L506.006 105.299L499.069 112.292L502.124 115.326ZM509.061 108.333L506.017 111.379C510.789 116.152 508.406 113.77 513.148 118.565L516.209 115.536L519.27 112.508C514.55 107.734 516.899 110.083 512.105 105.288L509.061 108.333ZM516.209 115.536L513.164 112.491L506.017 119.641L509.061 122.686L512.105 125.732L519.252 118.582L516.209 115.536ZM509.061 122.686L512.116 119.652L505.179 112.66L502.124 115.694L499.069 118.728L506.006 125.72L509.061 122.686ZM502.124 115.694L499.08 112.648C494.483 117.247 496.687 114.99 492.073 119.658L495.135 122.686L498.196 125.714C502.831 121.024 500.411 123.499 505.168 118.739L502.124 115.694ZM495.135 122.686L498.179 119.641L491.031 112.491L487.988 115.536L484.944 118.582L492.09 125.732L495.135 122.686ZM487.988 115.536L491.043 118.57L498.191 111.368L495.135 108.333L492.079 105.299L484.933 112.502L487.988 115.536Z" fill="#4480E4" fill-opacity="0.46"/>
</g>
</g>
<defs>
<filter id="filter0_d_32_114" x="4.7851" y="4.79208" width="531.397" height="135.002" filterUnits="userSpaceOnUse" color-interpolation-filters="sRGB">
<feFlood flood-opacity="0" result="BackgroundImageFix"/>
<feColorMatrix in="SourceAlpha" type="matrix" values="0 0 0 0 0 0 0 0 0 0 0 0 0 0 0 0 0 0 127 0" result="hardAlpha"/>
<feOffset/>
<feGaussianBlur stdDeviation="5.5"/>
<feComposite in2="hardAlpha" operator="out"/>
<feColorMatrix type="matrix" values="0 0 0 0 0.490196 0 0 0 0 0.678431 0 0 0 0 0.992157 0 0 0 1 0"/>
<feBlend mode="normal" in2="BackgroundImageFix" result="effect1_dropShadow_32_114"/>
<feBlend mode="normal" in="SourceGraphic" in2="effect1_dropShadow_32_114" result="shape"/>
</filter>
<linearGradient id="paint0_linear_32_114" x1="271.197" y1="50.5879" x2="271.197" y2="148.391" gradientUnits="userSpaceOnUse">
<stop offset="0.254808" stop-color="#D6FDFD"/>
<stop offset="1" stop-color="#3591D2"/>
</linearGradient>
</defs>
</svg>
