<svg width="17" height="77" viewBox="0 0 17 77" fill="none" xmlns="http://www.w3.org/2000/svg">
<g filter="url(#filter0_dd_212_117)">
<path d="M8.77437 44.4091C8.70688 45.8438 8.98756 46.9732 8.93297 48.7219C8.87923 50.4706 8.73836 50.7325 8.75508 52.7351C8.76703 54.7377 8.66528 56.7414 8.70422 57.6331C8.73909 58.5247 8.60388 58.6188 8.62304 59.8851C8.63923 61.1512 8.61153 61.9186 8.56969 63.026C8.5241 64.1334 8.49657 67.5356 8.50643 68.7727C8.51072 70.0098 8.47217 71.4208 8.4717 72.2694C8.47019 72.5337 8.46928 72.7417 8.46893 72.9012C8.46876 72.9688 8.46875 73 8.46875 73C8.46877 73 8.46869 72.9516 8.46846 72.8648C8.46731 72.4433 8.466 71.8134 8.45435 71.0693C8.42739 69.6818 8.44572 69.5302 8.41822 67.6566C8.38874 65.783 8.31801 64.6574 8.3281 62.4529C8.35243 60.2485 8.15063 59.7421 8.23143 56.6303C8.33574 53.5186 8.08939 53.1911 8.01802 50.0902C7.94859 46.9892 8.1007 43.0748 8.08806 41.2055C8.08627 40.9794 8.08422 40.744 8.08209 40.5C8.06629 38.7269 8.04829 36.5051 8.09349 34.1756C8.14095 31.5256 8.07931 28.2543 8.17182 25.3291C8.26121 22.404 8.35963 18.2685 8.39787 16.358C8.43814 14.4475 8.43733 13.9818 8.43984 12.1429C8.44117 11.0858 8.46225 9.62967 8.46766 8.39968C8.47016 7.78067 8.46709 7.92094 8.47125 8.54399C8.47798 9.4551 8.47936 10.203 8.4934 10.6725C8.52363 11.6105 8.55285 12.0092 8.54684 13.1935C8.53542 14.3777 8.60641 14.9357 8.61197 15.626C8.61612 16.3163 8.56283 16.305 8.64757 19.815C8.73992 23.3251 8.78458 25.2494 8.8142 26.5786C8.84771 27.9079 8.79023 30.6834 8.83126 32.8498C8.87143 34.7713 8.86279 38.4534 8.8944 40.5C8.8986 40.7607 8.90359 40.995 8.90964 41.1956C8.96248 42.9709 8.84282 42.9745 8.77437 44.4091Z" fill="#D9E5F8"/>
</g>
<defs>
<filter id="filter0_dd_212_117" x="0" y="0" width="16.9404" height="81" filterUnits="userSpaceOnUse" color-interpolation-filters="sRGB">
<feFlood flood-opacity="0" result="BackgroundImageFix"/>
<feColorMatrix in="SourceAlpha" type="matrix" values="0 0 0 0 0 0 0 0 0 0 0 0 0 0 0 0 0 0 127 0" result="hardAlpha"/>
<feOffset/>
<feGaussianBlur stdDeviation="4"/>
<feComposite in2="hardAlpha" operator="out"/>
<feColorMatrix type="matrix" values="0 0 0 0 1 0 0 0 0 1 0 0 0 0 1 0 0 0 0.5 0"/>
<feBlend mode="normal" in2="BackgroundImageFix" result="effect1_dropShadow_212_117"/>
<feColorMatrix in="SourceAlpha" type="matrix" values="0 0 0 0 0 0 0 0 0 0 0 0 0 0 0 0 0 0 127 0" result="hardAlpha"/>
<feOffset dy="4"/>
<feGaussianBlur stdDeviation="2"/>
<feComposite in2="hardAlpha" operator="out"/>
<feColorMatrix type="matrix" values="0 0 0 0 0.074369 0 0 0 0 0.0198317 0 0 0 0 0.317308 0 0 0 0.17 0"/>
<feBlend mode="normal" in2="effect1_dropShadow_212_117" result="effect2_dropShadow_212_117"/>
<feBlend mode="normal" in="SourceGraphic" in2="effect2_dropShadow_212_117" result="shape"/>
</filter>
</defs>
</svg>
