<svg width="640" height="400" viewBox="0 0 640 400" fill="none" xmlns="http://www.w3.org/2000/svg">
<path d="M277.596 194.12C277.596 193.372 277.493 192.822 277.288 192.47C277.082 192.103 276.672 191.92 276.056 191.92H275.616V191.48H277.596C278.138 191.48 278.542 191.553 278.806 191.7C279.084 191.832 279.282 192.081 279.4 192.448C279.517 192.815 279.576 193.372 279.576 194.12V205.12H287.386V206H277.596V194.12ZM293.06 206.22C292.063 206.22 291.198 205.985 290.464 205.516C289.731 205.032 289.174 204.379 288.792 203.558C288.411 202.737 288.22 201.827 288.22 200.83C288.22 199.833 288.411 198.923 288.792 198.102C289.174 197.281 289.731 196.635 290.464 196.166C291.198 195.682 292.063 195.44 293.06 195.44C294.058 195.44 294.923 195.682 295.656 196.166C296.39 196.635 296.947 197.281 297.328 198.102C297.71 198.923 297.9 199.833 297.9 200.83C297.9 201.827 297.71 202.737 297.328 203.558C296.947 204.379 296.39 205.032 295.656 205.516C294.923 205.985 294.058 206.22 293.06 206.22ZM293.06 205.34C293.603 205.34 294.08 205.142 294.49 204.746C294.916 204.35 295.238 203.807 295.458 203.118C295.693 202.429 295.81 201.666 295.81 200.83C295.81 199.994 295.693 199.231 295.458 198.542C295.238 197.853 294.916 197.31 294.49 196.914C294.08 196.518 293.603 196.32 293.06 196.32C292.518 196.32 292.034 196.518 291.608 196.914C291.198 197.31 290.875 197.853 290.64 198.542C290.42 199.231 290.31 199.994 290.31 200.83C290.31 201.666 290.42 202.429 290.64 203.118C290.875 203.807 291.198 204.35 291.608 204.746C292.034 205.142 292.518 205.34 293.06 205.34ZM302.944 206.22C302.475 206.22 301.998 206.125 301.514 205.934C301.03 205.729 300.612 205.399 300.26 204.944C299.923 204.489 299.754 203.888 299.754 203.14C299.754 202.025 300.268 201.233 301.294 200.764C302.336 200.295 303.692 200.06 305.364 200.06H306.024C306.024 198.623 305.826 197.64 305.43 197.112C305.034 196.584 304.462 196.32 303.714 196.32C303.054 196.32 302.526 196.459 302.13 196.738C301.734 197.017 301.456 197.501 301.294 198.19H300.304C300.304 197.691 300.334 197.303 300.392 197.024C300.451 196.731 300.605 196.459 300.854 196.21C301.118 195.946 301.551 195.755 302.152 195.638C302.768 195.506 303.436 195.44 304.154 195.44C305.342 195.44 306.281 195.763 306.97 196.408C307.66 197.039 308.004 198.256 308.004 200.06V206H306.904L306.134 205.01H306.024C305.76 205.347 305.372 205.633 304.858 205.868C304.345 206.103 303.707 206.22 302.944 206.22ZM303.934 205.23C304.418 205.23 304.822 205.113 305.144 204.878C305.467 204.643 305.76 204.321 306.024 203.91V200.94H305.364C304.279 200.94 303.421 201.145 302.79 201.556C302.16 201.952 301.844 202.48 301.844 203.14C301.844 203.815 302.042 204.335 302.438 204.702C302.849 205.054 303.348 205.23 303.934 205.23ZM314.482 206.22C313.206 206.22 312.224 205.714 311.534 204.702C310.86 203.69 310.522 202.399 310.522 200.83C310.522 199.261 310.874 197.97 311.578 196.958C312.297 195.946 313.338 195.44 314.702 195.44C315.26 195.44 315.751 195.499 316.176 195.616C316.602 195.733 317.027 195.895 317.452 196.1V194.12C317.452 193.372 317.35 192.822 317.144 192.47C316.939 192.103 316.528 191.92 315.912 191.92H315.472V191.48H317.452C317.995 191.48 318.398 191.553 318.662 191.7C318.941 191.832 319.139 192.081 319.256 192.448C319.374 192.815 319.432 193.372 319.432 194.12V206H318.332L317.562 205.01H317.452C317.13 205.377 316.748 205.67 316.308 205.89C315.883 206.11 315.274 206.22 314.482 206.22ZM315.142 205.34C315.744 205.34 316.198 205.23 316.506 205.01C316.814 204.79 317.13 204.46 317.452 204.02V196.98C317.012 196.775 316.631 196.613 316.308 196.496C315.986 196.379 315.67 196.32 315.362 196.32C314.424 196.32 313.727 196.731 313.272 197.552C312.832 198.373 312.612 199.466 312.612 200.83C312.612 202.179 312.825 203.272 313.25 204.108C313.676 204.929 314.306 205.34 315.142 205.34ZM323.775 194.34C323.438 194.34 323.145 194.201 322.895 193.922C322.661 193.643 322.543 193.313 322.543 192.932C322.543 192.624 322.631 192.382 322.807 192.206C322.998 192.03 323.247 191.942 323.555 191.942C323.893 191.942 324.179 192.081 324.413 192.36C324.663 192.639 324.787 192.969 324.787 193.35C324.787 193.658 324.692 193.9 324.501 194.076C324.325 194.252 324.083 194.34 323.775 194.34ZM322.939 198.3C322.939 197.552 322.837 197.002 322.631 196.65C322.426 196.283 322.015 196.1 321.399 196.1H320.959V195.66H322.939C323.482 195.66 323.885 195.733 324.149 195.88C324.428 196.012 324.626 196.261 324.743 196.628C324.861 196.995 324.919 197.552 324.919 198.3V206H322.939V198.3ZM328.353 198.3C328.353 197.552 328.251 197.002 328.045 196.65C327.84 196.283 327.429 196.1 326.813 196.1H326.373V195.66H328.353C328.896 195.66 329.307 195.733 329.585 195.88C329.879 196.027 330.091 196.247 330.223 196.54H330.333C330.641 196.232 331.037 195.975 331.521 195.77C332.02 195.55 332.577 195.44 333.193 195.44C334.293 195.44 335.188 195.733 335.877 196.32C336.581 196.907 336.933 197.933 336.933 199.4V206H334.953V199.4C334.953 198.373 334.719 197.625 334.249 197.156C333.795 196.672 333.223 196.43 332.533 196.43C331.756 196.43 331.023 196.819 330.333 197.596V206H328.353V198.3ZM343.818 210.4C342.337 210.4 341.156 210.129 340.276 209.586C339.411 209.043 338.978 208.178 338.978 206.99C338.978 206.315 339.206 205.729 339.66 205.23C340.115 204.731 340.694 204.365 341.398 204.13C340.812 203.807 340.518 203.367 340.518 202.81C340.518 202.517 340.584 202.289 340.716 202.128C340.848 201.967 341.039 201.791 341.288 201.6C340.819 201.365 340.423 200.999 340.1 200.5C339.792 200.001 339.638 199.415 339.638 198.74C339.638 196.54 341.032 195.44 343.818 195.44H347.888V195.99L346.458 196.21V196.32C346.913 196.555 347.28 196.885 347.558 197.31C347.852 197.721 347.998 198.197 347.998 198.74C347.998 200.94 346.605 202.04 343.818 202.04C342.278 202.04 341.508 202.297 341.508 202.81C341.508 203.323 342.278 203.58 343.818 203.58C345.241 203.58 346.4 203.866 347.294 204.438C348.204 204.995 348.658 205.846 348.658 206.99C348.658 208.178 348.218 209.043 347.338 209.586C346.473 210.129 345.3 210.4 343.818 210.4ZM343.818 201.27C344.478 201.27 345.006 201.072 345.402 200.676C345.813 200.265 346.018 199.62 346.018 198.74C346.018 197.904 345.813 197.273 345.402 196.848C345.006 196.423 344.478 196.21 343.818 196.21C343.158 196.21 342.623 196.415 342.212 196.826C341.816 197.222 341.618 197.86 341.618 198.74C341.618 199.62 341.816 200.265 342.212 200.676C342.623 201.072 343.158 201.27 343.818 201.27ZM343.818 209.52C344.698 209.52 345.395 209.307 345.908 208.882C346.422 208.471 346.678 207.841 346.678 206.99C346.678 205.523 345.798 204.68 344.038 204.46L342.828 204.35C342.227 204.585 341.765 204.915 341.442 205.34C341.12 205.765 340.958 206.315 340.958 206.99C340.958 207.841 341.215 208.471 341.728 208.882C342.242 209.307 342.938 209.52 343.818 209.52ZM351.654 206.308C351.332 206.308 351.053 206.191 350.818 205.956C350.584 205.721 350.466 205.435 350.466 205.098C350.466 204.775 350.584 204.497 350.818 204.262C351.053 204.027 351.332 203.91 351.654 203.91C351.992 203.91 352.27 204.027 352.49 204.262C352.725 204.497 352.842 204.775 352.842 205.098C352.842 205.435 352.725 205.721 352.49 205.956C352.256 206.191 351.977 206.308 351.654 206.308ZM356.488 206.308C356.166 206.308 355.887 206.191 355.652 205.956C355.418 205.721 355.3 205.435 355.3 205.098C355.3 204.775 355.418 204.497 355.652 204.262C355.887 204.027 356.166 203.91 356.488 203.91C356.826 203.91 357.104 204.027 357.324 204.262C357.559 204.497 357.676 204.775 357.676 205.098C357.676 205.435 357.559 205.721 357.324 205.956C357.09 206.191 356.811 206.308 356.488 206.308ZM361.322 206.308C361 206.308 360.721 206.191 360.486 205.956C360.252 205.721 360.134 205.435 360.134 205.098C360.134 204.775 360.252 204.497 360.486 204.262C360.721 204.027 361 203.91 361.322 203.91C361.66 203.91 361.938 204.027 362.158 204.262C362.393 204.497 362.51 204.775 362.51 205.098C362.51 205.435 362.393 205.721 362.158 205.956C361.924 206.191 361.645 206.308 361.322 206.308Z" fill="white"/>
</svg>
