<svg width="370" height="20" viewBox="0 0 370 20" fill="none" xmlns="http://www.w3.org/2000/svg">
<g filter="url(#filter0_dd_291_503)">
<path d="M206.01 8.66277C213.812 8.93273 219.954 7.81002 229.465 8.02839C238.975 8.24335 240.399 8.80681 251.29 8.73996C262.181 8.69214 273.078 9.09915 277.928 8.94337C282.777 8.8039 283.289 9.34475 290.175 9.26811C297.061 9.20333 301.234 9.31415 307.257 9.4815C313.279 9.66388 331.782 9.77397 338.51 9.73456C345.238 9.71737 352.912 9.8716 357.527 9.87348C358.964 9.8795 360.096 9.88313 360.963 9.88456C361.33 9.88521 361.5 9.88527 361.5 9.88525C361.5 9.88519 361.237 9.88552 360.765 9.88641C358.472 9.89102 355.047 9.89628 351 9.94285C343.454 10.0507 342.63 9.9774 332.44 10.0874C322.251 10.2053 316.129 10.4882 304.14 10.4479C292.151 10.3505 289.398 11.1577 272.474 10.8346C255.551 10.4173 253.77 11.4027 236.906 11.6882C220.041 11.9659 198.753 11.3575 188.587 11.408C187.357 11.4152 186.077 11.4234 184.75 11.4319C175.107 11.4951 163.024 11.5671 150.355 11.3863C135.943 11.1965 118.152 11.443 102.244 11.073C86.3357 10.7154 63.8449 10.3218 53.4544 10.1688C43.0643 10.0077 40.5319 10.0109 30.5309 10.0009C24.7822 9.99558 16.8629 9.91126 10.1736 9.8896C6.80718 9.87962 7.57002 9.89188 10.9585 9.87524C15.9135 9.84834 19.9811 9.8428 22.5342 9.78666C27.6358 9.66575 29.8041 9.54887 36.2446 9.5729C42.6847 9.61859 45.7193 9.33462 49.4736 9.31237C53.2279 9.29577 53.1662 9.50893 72.2555 9.16996C91.345 8.80058 101.81 8.62193 109.039 8.50344C116.268 8.36942 131.363 8.59936 143.144 8.43521C153.595 8.27454 173.62 8.3091 184.75 8.18268C186.168 8.16586 187.442 8.14588 188.533 8.12171C198.188 7.91033 198.208 8.38899 206.01 8.66277Z" fill="#D9E5F8"/>
</g>
<defs>
<filter id="filter0_dd_291_503" x="0" y="0" width="369.5" height="19.7611" filterUnits="userSpaceOnUse" color-interpolation-filters="sRGB">
<feFlood flood-opacity="0" result="BackgroundImageFix"/>
<feColorMatrix in="SourceAlpha" type="matrix" values="0 0 0 0 0 0 0 0 0 0 0 0 0 0 0 0 0 0 127 0" result="hardAlpha"/>
<feOffset/>
<feGaussianBlur stdDeviation="4"/>
<feComposite in2="hardAlpha" operator="out"/>
<feColorMatrix type="matrix" values="0 0 0 0 1 0 0 0 0 1 0 0 0 0 1 0 0 0 0.5 0"/>
<feBlend mode="normal" in2="BackgroundImageFix" result="effect1_dropShadow_291_503"/>
<feColorMatrix in="SourceAlpha" type="matrix" values="0 0 0 0 0 0 0 0 0 0 0 0 0 0 0 0 0 0 127 0" result="hardAlpha"/>
<feOffset dy="4"/>
<feGaussianBlur stdDeviation="2"/>
<feComposite in2="hardAlpha" operator="out"/>
<feColorMatrix type="matrix" values="0 0 0 0 0.074369 0 0 0 0 0.0198317 0 0 0 0 0.317308 0 0 0 0.17 0"/>
<feBlend mode="normal" in2="effect1_dropShadow_291_503" result="effect2_dropShadow_291_503"/>
<feBlend mode="normal" in="SourceGraphic" in2="effect2_dropShadow_291_503" result="shape"/>
</filter>
</defs>
</svg>
